<svg xmlns="http://www.w3.org/2000/svg" version="1.1" xmlns:xlink="http://www.w3.org/1999/xlink" xmlns:svgjs="http://svgjs.dev/svgjs" viewBox="0 0 1422 800"><defs><filter id="uuunion-blur" x="-100%" y="-100%" width="400%" height="400%" color-interpolation-filters="sRGB">
        <feGaussianBlur in="SourceGraphic" stdDeviation="0.5 0" result="blur"></feGaussianBlur>
        <feDropShadow stdDeviation="12.307692307692308" in="blur" dx="10" dy="10" flood-color="#4185f0" flood-opacity="0.25" x="0%" y="0%" width="100%" height="100%"></feDropShadow>
      </filter><filter id="uuunion-blur2" x="-100%" y="-100%" width="400%" height="400%" color-interpolation-filters="sRGB">
        <feGaussianBlur in="SourceGraphic" stdDeviation="0.5 0" result="blur"></feGaussianBlur>
        <feDropShadow stdDeviation="12.307692307692308" in="blur" dx="-10" dy="-10" flood-color="#4185f0" flood-opacity="0.25" x="0%" y="0%" width="100%" height="100%"></feDropShadow>
      </filter><linearGradient gradientTransform="rotate(0, 0.5, 0.5)" x1="50%" y1="0%" x2="50%" y2="100%" id="uuunion-grad"><stop stop-color="#96c6fa" offset="10%"></stop><stop stop-color="#4185f0" offset="90%"></stop></linearGradient><linearGradient gradientTransform="rotate(135, 0.5, 0.5)" x1="50%" y1="0%" x2="50%" y2="100%" id="uuunion-grad2"><stop stop-color="#96c6fa" offset="25%"></stop><stop stop-color="#4185f0" offset="100%"></stop></linearGradient><linearGradient gradientTransform="rotate(333, 0.5, 0.5)" x1="50%" y1="0%" x2="50%" y2="100%" id="uuunion-grad3"><stop stop-color="#96c6fa" offset="0%"></stop><stop stop-color="#4185f0" offset="75%"></stop></linearGradient></defs><path d="M-131.49 -86.72Q-118.5 -88.29 -105.51 -88.79 -92.53 -88.17 -79.54 -86.49 -66.55 -83.99 -53.56 -80.96 -40.58 -77.82 -27.59 -74.95 -14.6 -72.73 -1.61 -71.45 11.37 -71.26 24.35 -72.19 37.34 -74.13 50.33 -76.82 63.32 -79.91 76.3 -83.02 89.29 -85.74 102.28 -87.72 115.27 -88.71 128.25 -88.58 141.24 -87.35 154.23 -85.17 167.22 -82.33 180.2 -79.19 193.19 -76.15 206.18 -73.61 219.17 -71.88 232.15 -71.2 245.14 -71.65 258.13 -73.17 271.12 -75.56 284.1 -78.53 297.09 -81.68 310.08 -84.62 323.07 -86.96 336.05 -88.41 349.04 -88.78 362.03 -88.02 375.02 -86.23 388 -83.64 400.99 -80.58 413.98 -77.44 426.97 -74.64 439.96 -72.52 452.94 -71.36 465.93 -71.31 478.92 -72.38 491.91 -74.42 504.89 -77.18 517.88 -80.3 530.87 -83.38 543.86 -86.03 556.84 -87.9 569.83 -88.76 582.82 -88.49 595.81 -87.13 608.79 -84.85 621.78 -81.95 634.77 -78.8 647.76 -75.8 660.74 -73.35 673.73 -71.74 686.72 -71.2 699.71 -71.78 712.7 -73.42 725.68 -75.9 738.67 -78.91 751.66 -82.06 764.65 -84.95 777.63 -87.19 790.62 -88.52 803.61 -88.74 816.6 -87.85 829.58 -85.95 842.57 -83.28 855.56 -80.19 868.55 -77.07 881.53 -74.34 894.52 -72.32 907.51 -71.3 920.5 -71.39 933.49 -72.58 946.47 -74.73 959.46 -77.55 972.45 -80.69 985.44 -83.74 998.42 -86.31 1011.41 -88.06 1024.4 -88.78 1037.39 -88.38 1050.37 -86.89 1063.36 -84.52 1076.35 -81.57 1089.34 -78.42 1102.32 -75.47 1115.31 -73.1 1128.3 -71.61 1141.29 -71.21 1154.28 -71.93 1167.26 -73.69 1180.25 -76.25 1193.24 -79.3 1206.23 -82.44 1219.21 -85.26 1232.2 -87.41 1245.19 -88.6 1258.18 -88.69 1271.16 -87.67 1284.15 -85.65 1297.14 -82.91 1310.13 -79.8 1323.11 -76.71 1336.1 -74.04 1349.09 -72.14 1362.08 -71.25 1375.07 -71.47 1388.05 -72.8 1401.04 -75.05 1414.03 -77.93 1427.02 -81.08 1440 -84.09 1452.99 -86.57 1465.98 -88.21 1478.97 -88.79 1491.95 -88.25 1504.94 -86.64 1517.93 -84.18 1530.92 -81.19 1533.67 -66.22 1538.46 -51.25 1544.96 -36.28 1552.74 -21.31 1561.28 -6.34 1570.01 8.62 1578.36 23.59 1585.76 38.56 1591.73 53.53 1595.87 68.5 1597.9 83.47 1597.69 98.44 1595.26 113.41 1590.75 128.38 1584.48 143.35 1576.86 158.32 1568.4 173.29 1559.66 188.26 1551.22 203.22 1543.64 218.19 1537.43 233.16 1533 248.13 1530.65 263.1 1530.52 278.07 1532.64 293.04 1536.85 308.01 1542.89 322.98 1550.34 337.95 1558.71 352.92 1567.45 367.89 1575.97 382.86 1583.71 397.83 1590.15 412.8 1594.86 427.77 1597.53 442.74 1597.99 457.71 1596.2 472.68 1592.28 487.65 1586.49 502.62 1579.22 517.58 1570.95 532.55 1562.23 547.52 1553.64 562.49 1545.75 577.46 1539.09 592.43 1534.1 607.4 1531.11 622.37 1530.32 637.34 1531.79 652.31 1535.41 667.28 1540.94 682.25 1548.02 697.22 1556.18 712.19 1564.87 727.16 1573.51 742.13 1581.54 757.1 1588.41 772.07 1593.67 787.04 1596.97 802.01 1598.09 816.98 1596.96 831.94 1593.64 846.91 1588.37 861.88 1581.49 876.85 1567.98 868.95 1554.47 862.47 1540.96 858.23 1527.45 856.8 1513.94 858.34 1500.43 862.66 1486.92 869.21 1473.41 877.14 1459.9 885.44 1446.39 893.04 1432.88 898.97 1419.37 902.46 1405.87 903.06 1392.36 900.7 1378.85 895.69 1365.34 888.65 1351.83 880.51 1338.32 872.3 1324.81 865.08 1311.3 859.77 1297.79 857.06 1284.28 857.3 1270.77 860.45 1257.26 866.11 1243.75 873.55 1230.24 881.82 1216.73 889.86 1203.22 896.63 1189.71 901.26 1176.2 903.17 1162.69 902.09 1149.18 898.18 1135.67 891.93 1122.16 884.15 1108.65 875.84 1095.14 868.06 1081.63 861.81 1068.12 857.9 1054.61 856.82 1041.1 858.73 1027.59 863.36 1014.08 870.13 1000.57 878.16 987.06 886.43 973.55 893.88 960.04 899.54 946.53 902.69 933.02 902.93 919.51 900.22 906 894.92 892.49 887.69 878.98 879.48 865.47 871.34 851.96 864.31 838.45 859.29 824.94 856.93 811.43 857.53 797.92 861.02 784.41 866.94 770.91 874.54 757.4 882.85 743.89 890.78 730.38 897.33 716.87 901.65 703.36 903.19 689.85 901.76 676.34 897.53 662.83 891.04 649.32 883.14 635.81 874.84 622.3 867.19 608.79 861.19 595.28 857.61 581.77 856.9 568.26 859.16 554.75 864.09 541.24 871.06 527.73 879.19 514.22 887.41 500.71 894.69 487.2 900.07 473.69 902.88 460.18 902.75 446.67 899.7 433.16 894.12 419.65 886.72 406.14 878.46 392.63 870.4 379.12 863.57 365.61 858.85 352.1 856.84 338.59 857.81 325.08 861.63 311.57 867.8 298.06 875.55 284.55 883.86 271.04 891.68 257.54 897.99 244.03 902 230.52 903.18 217.01 901.38 203.5 896.84 189.99 890.13 176.48 882.12 162.97 873.84 149.46 866.35 135.95 860.61 122.44 857.36 108.93 857.02 95.42 859.63 81.91 864.85 68.4 872.02 54.89 880.21 41.38 888.38 27.87 895.46 14.36 900.57 0.85 903.03 -12.65 902.53 -26.16 899.14 -39.67 893.29 -53.18 885.73 -66.69 877.44 -80.2 869.47 -93.71 862.86 -107.22 858.45 -120.73 856.8 -134.24 858.13 -147.75 862.27 -149.96 847.44 -151.65 832.62 -152.72 817.79 -153.08 802.96 -152.72 788.13 -151.66 773.3 -149.97 758.47 -147.76 743.65 -145.18 728.82 -142.4 713.99 -139.61 699.16 -136.99 684.33 -134.71 669.51 -132.93 654.68 -131.77 639.85 -131.3 625.02 -131.55 610.19 -132.51 595.37 -134.12 580.54 -136.26 565.71 -138.79 550.88 -141.55 536.05 -144.36 521.22 -147.02 506.4 -149.35 491.57 -151.21 476.74 -152.47 461.91 -153.05 447.08 -152.9 432.26 -152.04 417.43 -150.53 402.6 -148.46 387.77 -145.97 372.94 -143.23 358.12 -140.42 343.29 -137.73 328.46 -135.34 313.63 -133.4 298.8 -132.04 283.97 -131.36 269.15 -131.4 254.32 -132.16 239.49 -133.58 224.66 -135.58 209.83 -138.01 195.01 -140.73 180.18 -143.54 165.35 -146.26 150.52 -148.71 135.69 -150.72 120.87 -152.17 106.04 -152.95 91.21 -153.02 76.38 -152.37 61.55 -151.04 46.73 -149.12 31.9 -146.74 17.07 -144.05 2.24 -141.25 -12.58 -138.5 -27.41 -136 -42.23 -133.91 -57.06 -132.37 -71.89 -131.49 -86.72" fill="url(#uuunion-grad)"></path><path d="M-131.5 -86.72Q-132.38 -71.89 -133.92 -57.06 -136.01 -42.23 -138.51 -27.4 -141.26 -12.58 -144.06 2.24 -146.75 17.07 -149.13 31.9 -151.05 46.73 -152.38 61.56 -153.03 76.38 -152.96 91.21 -152.18 106.04 -150.73 120.87 -148.72 135.7 -146.27 150.52 -143.55 165.35 -140.74 180.18 -138.02 195.01 -135.59 209.84 -133.59 224.66 -132.17 239.49 -131.41 254.32 -131.37 269.15 -132.05 283.98 -133.41 298.81 -135.35 313.63 -137.74 328.46 -140.43 343.29 -143.24 358.12 -142.71 379.31 -130.42 384.39 -121.4 384 -112.38 384.53 -103.36 385.95 -94.34 388.17 -85.31 391.08 -76.29 394.5 -67.27 398.23 -58.25 402.06 -49.23 405.78 -40.21 409.16 -31.18 412.02 -22.16 414.18 -5.11 415.87 -2.1 415.97 9.46 411.84 21.01 406.37 32.54 399.8 44.06 392.43 55.55 384.65 67.01 376.87 78.45 369.51 89.87 362.94 101.25 357.46 112.61 353.28 123.94 350.48 135.23 349.02 146.49 348.76 157.72 349.42 168.92 350.67 180.09 352.1 191.22 353.33 202.33 353.95 213.4 353.64 224.44 352.15 235.45 349.35 246.43 345.22 257.38 339.85 268.31 333.45 279.22 326.31 290.1 318.81 300.96 311.33 311.8 304.26 322.62 297.95 333.43 292.67 344.22 288.62 355.01 285.86 365.78 284.35 376.55 283.95 387.32 284.4 398.09 285.39 408.86 286.53 419.63 287.45 430.41 287.8 441.2 287.26 452 285.61 462.82 282.73 473.65 278.61 484.51 273.33 495.38 267.11 506.28 260.22 517.21 253 528.17 245.82 539.15 239.04 550.17 232.98 561.23 227.9 572.31 223.96 583.44 221.23 594.6 219.67 605.81 219.13 617.05 219.37 628.34 220.08 639.66 220.93 651.03 221.56 662.44 221.63 673.9 220.86 685.39 219.06 696.93 216.11 708.51 212 720.13 206.83 731.78 200.79 743.48 194.15 755.21 187.21 766.97 180.33 778.77 173.84 790.6 168.03 802.46 163.13 814.34 159.31 826.25 156.6 838.17 154.98 850.12 154.29 862.08 154.31 874.05 154.75 886.04 155.3 898.02 155.63 910.01 155.44 922 154.46 933.98 152.5 945.95 149.49 957.91 145.41 969.86 140.35 981.78 134.5 993.68 128.1 1005.56 121.45 1017.4 114.87 1029.2 108.66 1040.97 103.09 1052.7 98.38 1064.38 94.66 1076.01 91.97 1087.59 90.27 1099.12 89.43 1110.58 89.22 1121.99 89.4 1133.33 89.65 1144.61 89.69 1155.82 89.23 1166.96 88.03 1178.03 85.94 1189.02 82.87 1199.94 78.82 1210.79 73.88 1221.56 68.22 1232.25 62.08 1242.86 55.72 1253.4 49.43 1263.86 43.5 1274.24 38.18 1284.54 33.64 1294.78 30.01 1304.93 27.33 1315.02 25.56 1325.04 24.55 1334.99 24.12 1344.87 24.02 1354.7 23.98 1364.46 23.72 1374.17 23 1383.82 21.6 1393.43 19.37 1402.99 16.25 1412.51 12.24 1422 7.42 1413.03 -10.26 1404.88 -27.96 1398.27 -45.65 1393.81 -63.35 1391.89 -81.04 1392.69 -98.74 1396.14 -116.43 1401.93 -134.13 1389.83 -132.72 1377.73 -132.11 1365.64 -132.37 1353.54 -133.46 1341.44 -135.28 1329.34 -137.6 1317.25 -140.19 1305.15 -142.76 1293.05 -145.03 1280.95 -146.74 1268.86 -147.71 1256.76 -147.84 1244.66 -147.1 1232.56 -145.59 1220.47 -143.46 1208.37 -140.95 1196.27 -138.34 1184.17 -135.91 1172.08 -133.92 1159.98 -132.6 1147.88 -132.1 1135.78 -132.46 1123.69 -133.65 1111.59 -135.53 1099.49 -137.9 1087.39 -140.51 1075.3 -143.05 1063.2 -145.26 1051.1 -146.9 1039 -147.77 1026.91 -147.8 1014.81 -146.96 1002.71 -145.37 990.61 -143.18 978.52 -140.64 966.42 -138.03 954.32 -135.64 942.22 -133.73 930.13 -132.5 918.03 -132.1 905.93 -132.56 893.83 -133.84 881.74 -135.79 869.64 -138.2 857.54 -140.82 845.44 -143.34 833.35 -145.49 821.25 -147.04 809.15 -147.82 797.05 -147.74 784.96 -146.81 772.86 -145.13 760.76 -142.89 748.66 -140.33 736.57 -137.73 724.47 -135.39 712.37 -133.54 700.27 -132.41 688.18 -132.11 676.08 -132.67 663.98 -134.04 651.88 -136.06 639.79 -138.51 627.69 -141.13 615.59 -143.62 603.49 -145.71 591.4 -147.18 579.3 -147.86 567.2 -147.67 555.1 -146.65 543.01 -144.89 530.91 -142.6 518.81 -140.02 506.71 -137.44 494.62 -135.14 482.52 -133.37 470.42 -132.33 458.32 -132.13 446.23 -132.79 434.13 -134.24 422.03 -136.33 409.93 -138.82 397.84 -141.43 385.74 -143.89 373.64 -145.92 361.54 -147.3 349.45 -147.88 337.35 -147.6 325.25 -146.48 313.15 -144.64 301.06 -142.3 288.96 -139.71 276.86 -137.14 264.76 -134.89 252.67 -133.2 240.57 -132.26 228.47 -132.16 216.37 -132.92 204.28 -134.46 192.18 -136.61 180.08 -139.13 167.98 -141.74 155.89 -144.16 143.79 -146.12 131.69 -147.42 119.59 -147.89 107.5 -147.5 95.4 -146.29 83.3 -144.39 71.2 -142 59.11 -139.4 47.01 -136.86 34.91 -134.66 22.81 -133.05 10.72 -132.2 -1.37 -132.21 -13.47 -133.07 -25.57 -134.69 -37.66 -136.89 -49.76 -139.44 -61.86 -142.04 -73.96 -144.42 -86.05 -146.32 -98.15 -147.52 -110.25 -147.89 -122.35 -147.4 -134.44 -146.1 -146.54 -144.13 -141.76 -129.78 -137.62 -115.44 -134.2 -101.08 -131.5 -86.72" fill="url(#uuunion-grad2)" filter="url(#uuunion-blur)"></path><path d="M1401.08 330.99Q1409.81 328.32 1418.54 325.17 1427.26 321.72 1435.99 318.17 1444.71 314.73 1453.44 311.59 1462.17 308.94 1470.89 306.91 1488.34 305.62 1505.79 306.83 1514.52 308.81 1523.25 311.44 1531.97 314.56 1540.7 317.99 1549.02 335.46 1558.71 352.92 1568.9 370.38 1578.66 387.85 1587.12 405.31 1593.5 422.78 1597.24 440.24 1597.99 457.71 1595.69 475.17 1590.54 492.64 1583.01 510.1 1573.79 527.56 1563.69 545.03 1553.64 562.49 1544.55 579.96 1537.23 597.42 1532.34 614.89 1530.34 632.35 1531.39 649.82 1535.41 667.28 1542.03 684.74 1550.65 702.21 1560.49 719.67 1570.67 737.14 1580.27 754.6 1588.41 772.07 1594.36 789.53 1597.59 807 1597.81 824.46 1594.98 841.92 1589.37 859.39 1581.49 876.85 1569.1 869.56 1556.71 863.4 1544.32 859.04 1531.93 856.94 1519.53 857.34 1507.14 860.19 1494.75 865.19 1482.36 871.78 1469.97 879.27 1457.57 886.83 1445.18 893.66 1432.79 899 1420.4 902.29 1408.01 903.17 1395.61 901.53 1383.22 897.57 1370.83 891.7 1358.44 884.57 1346.05 876.94 1333.65 869.64 1321.26 863.47 1308.87 859.08 1296.48 856.95 1284.09 857.32 1271.69 860.15 1259.3 865.12 1246.91 871.7 1234.52 879.18 1222.13 886.75 1209.73 893.58 1197.34 898.95 1184.95 902.27 1172.56 903.17 1160.17 901.57 1147.78 897.63 1135.38 891.78 1122.99 884.66 1110.6 877.03 1098.21 869.73 1085.82 863.53 1073.42 859.12 1061.03 856.96 1048.64 857.3 1036.25 860.1 1023.86 865.05 1011.46 871.61 999.07 879.09 986.68 886.66 974.29 893.51 961.9 898.9 949.5 902.24 937.11 903.17 924.72 901.6 912.33 897.69 899.94 891.86 887.54 884.75 875.15 877.12 862.76 869.81 850.37 863.59 837.98 859.16 825.59 856.97 813.19 857.28 800.8 860.05 788.41 864.98 776.02 871.53 763.63 879 751.23 886.57 738.84 893.44 726.45 898.85 714.06 902.21 701.67 903.18 689.27 901.63 676.88 897.74 664.49 891.94 652.1 884.84 639.71 877.21 627.31 869.89 614.92 863.66 602.53 859.2 590.14 856.99 577.75 857.27 565.35 860.01 552.96 864.91 540.57 871.45 528.18 878.91 515.79 886.49 503.39 893.36 491 898.79 478.61 902.19 466.22 903.18 453.83 901.66 441.44 897.8 429.04 892.01 416.65 884.92 404.26 877.3 391.87 869.97 379.48 863.72 367.08 859.24 354.69 857 342.3 857.25 329.91 859.96 317.52 864.84 305.12 871.36 292.73 878.82 280.34 886.4 267.95 893.29 255.56 898.74 243.16 902.16 230.77 903.18 218.38 901.7 205.99 897.86 193.6 892.09 181.2 885.01 168.81 877.39 156.42 870.05 144.03 863.79 131.64 859.28 119.25 857.01 106.85 857.23 94.46 859.92 82.07 864.77 69.68 871.28 57.29 878.73 44.89 886.31 32.5 893.22 20.11 898.69 1.02 897.59 -6.54 882.89 -7.24 872.74 -7.76 862.59 -8.08 852.44 -8.18 842.29 -7.67 827.06 -6.74 822 6.35 814.41 19.48 804.51 32.64 792.73 45.82 779.7 58.99 766.2 72.15 753.05 85.28 741.02 98.38 730.76 111.43 722.7 124.42 717.02 137.35 713.64 150.21 712.22 163 712.2 175.71 712.85 188.35 713.41 200.91 713.09 213.4 711.25 225.82 707.39 238.17 701.28 250.48 692.91 262.73 682.54 274.94 670.65 287.13 657.9 299.3 645.03 311.46 632.78 323.63 621.82 335.81 612.66 348.02 605.63 360.27 600.79 372.56 597.95 384.92 596.71 397.34 596.5 409.84 596.63 422.41 596.36 435.07 595.04 447.81 592.12 460.64 587.24 473.56 580.26 486.57 571.29 499.65 560.65 512.81 548.86 526.03 536.56 539.32 524.42 552.65 513.11 566.01 503.19 579.4 495.05 592.79 488.91 606.18 484.71 619.54 482.21 632.87 480.96 646.14 480.4 659.34 479.87 672.46 478.73 685.47 476.41 698.38 472.49 711.16 466.7 723.8 459.04 736.29 449.67 748.64 438.97 760.82 427.44 772.85 415.71 784.71 404.37 796.41 394.01 807.96 385.08 817.57 382.85 827.18 381.73 836.77 381.68 846.34 382.62 855.91 384.41 865.46 386.83 875 389.63 884.52 392.54 894.03 395.25 903.53 397.52 913.02 399.08 922.49 399.76 931.95 399.43 941.4 398.02 950.83 395.54 960.25 392.09 969.66 387.81 979.05 382.92 988.43 377.67 997.8 372.33 1007.16 367.18 1016.51 362.49 1025.84 358.5 1035.16 355.38 1044.47 353.27 1053.77 352.22 1063.05 352.22 1072.33 353.18 1081.59 354.94 1090.84 357.3 1100.09 360 1109.32 362.78 1118.54 365.36 1127.75 367.48 1136.95 368.9 1146.15 369.45 1155.33 369.01 1164.5 367.52 1173.67 365 1182.83 361.54 1191.98 357.29 1201.12 352.47 1210.25 347.31 1219.38 342.09 1228.5 337.08 1237.62 332.54 1246.73 328.69 1255.83 325.7 1264.93 323.7 1274.03 322.73 1283.12 322.77 1292.2 323.73 1301.29 325.46 1310.36 327.74 1319.44 330.35 1328.52 333.01 1337.59 335.45 1346.66 337.42 1355.73 338.7 1364.8 339.13 1373.87 338.58 1382.94 337.01 1392.01 334.45 1401.08 330.99" fill="url(#uuunion-grad3)" filter="url(#uuunion-blur2)"></path></svg>