<svg xmlns="http://www.w3.org/2000/svg" viewBox="0 0 1422 800"><defs><linearGradient id="a" x1="50%" x2="50%" y1="0%" y2="100%"><stop offset="10%" stop-color="#96c6fa"/><stop offset="90%" stop-color="#4185f0"/></linearGradient><linearGradient id="b" x1="50%" x2="50%" y1="0%" y2="100%" gradientTransform="rotate(135 .5 .5)"><stop offset="25%" stop-color="#96c6fa"/><stop offset="100%" stop-color="#4185f0"/></linearGradient><linearGradient id="d" x1="50%" x2="50%" y1="0%" y2="100%" gradientTransform="rotate(333 .5 .5)"><stop offset="0%" stop-color="#96c6fa"/><stop offset="75%" stop-color="#4185f0"/></linearGradient><filter id="c" width="400%" height="400%" x="-100%" y="-100%" color-interpolation-filters="sRGB"><feGaussianBlur in="SourceGraphic" result="blur" stdDeviation="0.5 0"/><feDropShadow width="100%" height="100%" x="0%" y="0%" dx="10" dy="10" flood-color="#4185f0" flood-opacity=".25" in="blur" stdDeviation="12.308"/></filter><filter id="e" width="400%" height="400%" x="-100%" y="-100%" color-interpolation-filters="sRGB"><feGaussianBlur in="SourceGraphic" result="blur" stdDeviation="0.5 0"/><feDropShadow width="100%" height="100%" x="0%" y="0%" dx="-10" dy="-10" flood-color="#4185f0" flood-opacity=".25" in="blur" stdDeviation="12.308"/></filter></defs><path fill="url(#a)" d="M-131.49-86.72q12.99-1.57 25.98-2.07 12.98.62 25.97 2.3 12.99 2.5 25.98 5.53 12.98 3.14 25.97 6.01 12.99 2.22 25.98 3.5 12.98.19 25.96-.74 12.99-1.94 25.98-4.63 12.99-3.09 25.97-6.2 12.99-2.72 25.98-4.7 12.99-.99 25.97-.86 12.99 1.23 25.98 3.41 12.99 2.84 25.97 5.98 12.99 3.04 25.98 5.58 12.99 1.73 25.97 2.41 12.99-.45 25.98-1.97 12.99-2.39 25.97-5.36 12.99-3.15 25.98-6.09 12.99-2.34 25.97-3.79 12.99-.37 25.98.39 12.99 1.79 25.97 4.38 12.99 3.06 25.98 6.2 12.99 2.8 25.98 4.92 12.98 1.16 25.97 1.21 12.99-1.07 25.98-3.11 12.98-2.76 25.97-5.88 12.99-3.08 25.98-5.73 12.98-1.87 25.97-2.73 12.99.27 25.98 1.63 12.98 2.28 25.97 5.18 12.99 3.15 25.98 6.15 12.98 2.45 25.97 4.06 12.99.54 25.98-.04 12.99-1.64 25.97-4.12 12.99-3.01 25.98-6.16 12.99-2.89 25.97-5.13 12.99-1.33 25.98-1.55 12.99.89 25.97 2.79 12.99 2.67 25.98 5.76 12.99 3.12 25.97 5.85 12.99 2.02 25.98 3.04 12.99-.09 25.98-1.28 12.98-2.15 25.97-4.97 12.99-3.14 25.98-6.19 12.98-2.57 25.97-4.32 12.99-.72 25.98-.32 12.98 1.49 25.97 3.86 12.99 2.95 25.98 6.1 12.98 2.95 25.97 5.32 12.99 1.49 25.98 1.89 12.99-.72 25.97-2.48 12.99-2.56 25.98-5.61 12.99-3.14 25.97-5.96 12.99-2.15 25.98-3.34 12.99-.09 25.97.93 12.99 2.02 25.98 4.76 12.99 3.11 25.97 6.2 12.99 2.67 25.98 4.57 12.99.89 25.98.67 12.98-1.33 25.97-3.58 12.99-2.88 25.98-6.03 12.98-3.01 25.97-5.49 12.99-1.64 25.98-2.22 12.98.54 25.97 2.15 12.99 2.46 25.98 5.45 2.75 14.97 7.54 29.94 6.5 14.97 14.28 29.94 8.54 14.97 17.27 29.93 8.35 14.97 15.75 29.94 5.97 14.97 10.11 29.94 2.03 14.97 1.82 29.94-2.43 14.97-6.94 29.94-6.27 14.97-13.89 29.94-8.46 14.97-17.2 29.94-8.44 14.96-16.02 29.93-6.21 14.97-10.64 29.94-2.35 14.97-2.48 29.94 2.12 14.97 6.33 29.94 6.04 14.97 13.49 29.94 8.37 14.97 17.11 29.94 8.52 14.97 16.26 29.94 6.44 14.97 11.15 29.94 2.67 14.97 3.13 29.94-1.79 14.97-5.71 29.94-5.79 14.97-13.06 29.93-8.27 14.97-16.99 29.94-8.59 14.97-16.48 29.94-6.66 14.97-11.65 29.94-2.99 14.97-3.78 29.94 1.47 14.97 5.09 29.94 5.53 14.97 12.61 29.94 8.16 14.97 16.85 29.94 8.64 14.97 16.67 29.94 6.87 14.97 12.13 29.94 3.3 14.97 4.42 29.94-1.13 14.96-4.45 29.93-5.27 14.97-12.15 29.94-13.51-7.9-27.02-14.38-13.51-4.24-27.02-5.67-13.51 1.54-27.02 5.86-13.51 6.55-27.02 14.48-13.51 8.3-27.02 15.9-13.51 5.93-27.02 9.42-13.5.6-27.01-1.76-13.51-5.01-27.02-12.05-13.51-8.14-27.02-16.35-13.51-7.22-27.02-12.53-13.51-2.71-27.02-2.47-13.51 3.15-27.02 8.81-13.51 7.44-27.02 15.71-13.51 8.04-27.02 14.81-13.51 4.63-27.02 6.54-13.51-1.08-27.02-4.99-13.51-6.25-27.02-14.03-13.51-8.31-27.02-16.09-13.51-6.25-27.02-10.16-13.51-1.08-27.02.83-13.51 4.63-27.02 11.4-13.51 8.03-27.02 16.3-13.51 7.45-27.02 13.11-13.51 3.15-27.02 3.39-13.51-2.71-27.02-8.01-13.51-7.23-27.02-15.44-13.51-8.14-27.02-15.17-13.51-5.02-27.02-7.38-13.51.6-27.02 4.09-13.51 5.92-27.01 13.52-13.51 8.31-27.02 16.24-13.51 6.55-27.02 10.87-13.51 1.54-27.02.11-13.51-4.23-27.02-10.72-13.51-7.9-27.02-16.2-13.51-7.65-27.02-13.65-13.51-3.58-27.02-4.29-13.51 2.26-27.02 7.19-13.51 6.97-27.02 15.1-13.51 8.22-27.02 15.5-13.51 5.38-27.02 8.19-13.51-.13-27.02-3.18-13.51-5.58-27.02-12.98-13.51-8.26-27.02-16.32-13.51-6.83-27.02-11.55-13.51-2.01-27.02-1.04-13.51 3.82-27.02 9.99-13.51 7.75-27.02 16.06-13.51 7.82-27.01 14.13-13.51 4.01-27.02 5.19-13.51-1.8-27.02-6.34-13.51-6.71-27.02-14.72-13.51-8.28-27.02-15.77-13.51-5.74-27.02-8.99-13.51-.34-27.02 2.27-13.51 5.22-27.02 12.39-13.51 8.19-27.02 16.36-13.51 7.08-27.02 12.19-13.51 2.46-27.01 1.96-13.51-3.39-27.02-9.24-13.51-7.56-27.02-15.85-13.51-7.97-27.02-14.58-13.51-4.41-27.02-6.06-13.51 1.33-27.02 5.47-2.21-14.83-3.9-29.65-1.07-14.83-1.43-29.66.36-14.83 1.42-29.66 1.69-14.83 3.9-29.65 2.58-14.83 5.36-29.66 2.79-14.83 5.41-29.66 2.28-14.82 4.06-29.65 1.16-14.83 1.63-29.66-.25-14.83-1.21-29.65-1.61-14.83-3.75-29.66-2.53-14.83-5.29-29.66-2.81-14.83-5.47-29.65-2.33-14.83-4.19-29.66-1.26-14.83-1.84-29.66.15-14.82 1.01-29.65 1.51-14.83 3.58-29.66 2.49-14.83 5.23-29.65 2.81-14.83 5.5-29.66 2.39-14.83 4.33-29.66 1.36-14.83 2.04-29.65-.04-14.83-.8-29.66-1.42-14.83-3.42-29.66-2.43-14.82-5.15-29.65-2.81-14.83-5.53-29.66-2.45-14.83-4.46-29.65-1.45-14.83-2.23-29.66-.07-14.83.58-29.66 1.33-14.82 3.25-29.65 2.38-14.83 5.07-29.66 2.8-14.82 5.55-29.65 2.5-14.82 4.59-29.65 1.54-14.83 2.42-29.66"/><path fill="url(#b)" d="M-131.5-86.72q-.88 14.83-2.42 29.66-2.09 14.83-4.59 29.66-2.75 14.82-5.55 29.64-2.69 14.83-5.07 29.66-1.92 14.83-3.25 29.66-.65 14.82-.58 29.65.78 14.83 2.23 29.66 2.01 14.83 4.46 29.65 2.72 14.83 5.53 29.66 2.72 14.83 5.15 29.66 2 14.82 3.42 29.65.76 14.83.8 29.66-.68 14.83-2.04 29.66-1.94 14.82-4.33 29.65-2.69 14.83-5.5 29.66.53 21.19 12.82 26.27 9.02-.39 18.04.14 9.02 1.42 18.04 3.64 9.03 2.91 18.05 6.33 9.02 3.73 18.04 7.56 9.02 3.72 18.04 7.1 9.03 2.86 18.05 5.02 17.05 1.69 20.06 1.79 11.56-4.13 23.11-9.6 11.53-6.57 23.05-13.94 11.49-7.78 22.95-15.56 11.44-7.36 22.86-13.93 11.38-5.48 22.74-9.66 11.33-2.8 22.62-4.26 11.26-.26 22.49.4 11.2 1.25 22.37 2.68 11.13 1.23 22.24 1.85 11.07-.31 22.11-1.8 11.01-2.8 21.99-6.93 10.95-5.37 21.88-11.77 10.91-7.14 21.79-14.64 10.86-7.48 21.7-14.55 10.82-6.31 21.63-11.59 10.79-4.05 21.58-6.81 10.77-1.51 21.54-1.91 10.77.45 21.54 1.44 10.77 1.14 21.54 2.06 10.78.35 21.57-.19 10.8-1.65 21.62-4.53 10.83-4.12 21.69-9.4 10.87-6.22 21.77-13.11 10.93-7.22 21.89-14.4 10.98-6.78 22-12.84 11.06-5.08 22.14-9.02 11.13-2.73 22.29-4.29 11.21-.54 22.45-.3 11.29.71 22.61 1.56 11.37.63 22.78.7 11.46-.77 22.95-2.57 11.54-2.95 23.12-7.06 11.62-5.17 23.27-11.21 11.7-6.64 23.43-13.58 11.76-6.88 23.56-13.37 11.83-5.81 23.69-10.71 11.88-3.82 23.79-6.53 11.92-1.62 23.87-2.31 11.96.02 23.93.46 11.99.55 23.97.88 11.99-.19 23.98-1.17 11.98-1.96 23.95-4.97 11.96-4.08 23.91-9.14 11.92-5.85 23.82-12.25 11.88-6.65 23.72-13.23 11.8-6.21 23.57-11.78 11.73-4.71 23.41-8.43 11.63-2.69 23.21-4.39 11.53-.84 22.99-1.05 11.41.18 22.75.43 11.28.04 22.49-.42 11.14-1.2 22.21-3.29 10.99-3.07 21.91-7.12 10.85-4.94 21.62-10.6 10.69-6.14 21.3-12.5 10.54-6.29 21-12.22 10.38-5.32 20.68-9.86 10.24-3.63 20.39-6.31 10.09-1.77 20.11-2.78 9.95-.43 19.83-.53 9.83-.04 19.59-.3 9.71-.72 19.36-2.12 9.61-2.23 19.17-5.35 9.52-4.01 19.01-8.83-8.97-17.68-17.12-35.38-6.61-17.69-11.07-35.39-1.92-17.69-1.12-35.39 3.45-17.69 9.24-35.39-12.1 1.41-24.2 2.02-12.09-.26-24.19-1.35-12.1-1.82-24.2-4.14-12.09-2.59-24.19-5.16-12.1-2.27-24.2-3.98-12.09-.97-24.19-1.1-12.1.74-24.2 2.25-12.09 2.13-24.19 4.64-12.1 2.61-24.2 5.04-12.09 1.99-24.19 3.31-12.1.5-24.2.14-12.09-1.19-24.19-3.07-12.1-2.37-24.2-4.98-12.09-2.54-24.19-4.75-12.1-1.64-24.2-2.51-12.09-.03-24.19.81-12.1 1.59-24.2 3.78-12.09 2.54-24.19 5.15-12.1 2.39-24.2 4.3-12.09 1.23-24.19 1.63-12.1-.46-24.2-1.74-12.09-1.95-24.19-4.36-12.1-2.62-24.2-5.14-12.09-2.15-24.19-3.7-12.1-.78-24.2-.7-12.09.93-24.19 2.61-12.1 2.24-24.2 4.8-12.09 2.6-24.19 4.94-12.1 1.85-24.2 2.98-12.09.3-24.19-.26-12.1-1.37-24.2-3.39-12.09-2.45-24.19-5.07-12.1-2.49-24.2-4.58-12.09-1.47-24.19-2.15-12.1.19-24.2 1.21-12.09 1.76-24.19 4.05l-24.2 5.16q-12.09 2.3-24.19 4.07-12.1 1.04-24.2 1.24-12.09-.66-24.19-2.11-12.1-2.09-24.2-4.58-12.09-2.61-24.19-5.07-12.1-2.03-24.2-3.41-12.09-.58-24.19-.3-12.1 1.12-24.2 2.96-12.09 2.34-24.19 4.93-12.1 2.57-24.2 4.82-12.09 1.69-24.19 2.63-12.1.1-24.2-.66-12.09-1.54-24.19-3.69-12.1-2.52-24.2-5.13-12.09-2.42-24.19-4.38-12.1-1.3-24.2-1.77-12.09.39-24.19 1.6-12.1 1.9-24.2 4.29-12.09 2.6-24.19 5.14-12.1 2.2-24.2 3.81-12.09.85-24.18.84-12.1-.86-24.2-2.48-12.09-2.2-24.19-4.75-12.1-2.6-24.2-4.98-12.09-1.9-24.19-3.1-12.1-.37-24.2.12-12.09 1.3-24.19 3.27 4.78 14.35 8.92 28.69 3.42 14.36 6.12 28.72" filter="url(#c)"/><path fill="url(#d)" d="M1401.08 330.99q8.73-2.67 17.46-5.82 8.72-3.45 17.45-7 8.72-3.44 17.45-6.58 8.73-2.65 17.45-4.68 17.45-1.29 34.9-.08 8.73 1.98 17.46 4.61 8.72 3.12 17.45 6.55 8.32 17.47 18.01 34.93 10.19 17.46 19.95 34.93 8.46 17.46 14.84 34.93 3.74 17.46 4.49 34.93-2.3 17.46-7.45 34.93-7.53 17.46-16.75 34.92-10.1 17.47-20.15 34.93-9.09 17.47-16.41 34.93-4.89 17.47-6.89 34.93 1.05 17.47 5.07 34.93 6.62 17.46 15.24 34.93 9.84 17.46 20.02 34.93 9.6 17.46 17.74 34.93 5.95 17.46 9.18 34.93.22 17.46-2.61 34.92-5.61 17.47-13.49 34.93-12.39-7.29-24.78-13.45-12.39-4.36-24.78-6.46-12.4.4-24.79 3.25-12.39 5-24.78 11.59-12.39 7.49-24.79 15.05-12.39 6.83-24.78 12.17-12.39 3.29-24.78 4.17-12.4-1.64-24.79-5.6-12.39-5.87-24.78-13-12.39-7.63-24.79-14.93-12.39-6.17-24.78-10.56-12.39-2.13-24.78-1.76-12.4 2.83-24.79 7.8-12.39 6.58-24.78 14.06-12.39 7.57-24.79 14.4-12.39 5.37-24.78 8.69-12.39.9-24.78-.7-12.39-3.94-24.79-9.79-12.39-7.12-24.78-14.75-12.39-7.3-24.78-13.5-12.4-4.41-24.79-6.57-12.39.34-24.78 3.14-12.39 4.95-24.79 11.51-12.39 7.48-24.78 15.05-12.39 6.85-24.78 12.24-12.4 3.34-24.79 4.27-12.39-1.57-24.78-5.48-12.39-5.83-24.79-12.94-12.39-7.63-24.78-14.94-12.39-6.22-24.78-10.65-12.39-2.19-24.79-1.88-12.39 2.77-24.78 7.7-12.39 6.55-24.78 14.02-12.4 7.57-24.79 14.44-12.39 5.41-24.78 8.77-12.39.97-24.79-.58-12.39-3.89-24.78-9.69-12.39-7.1-24.78-14.73-12.4-7.32-24.79-13.55-12.39-4.46-24.78-6.67-12.39.28-24.79 3.02-12.39 4.9-24.78 11.44-12.39 7.46-24.78 15.04-12.4 6.87-24.79 12.3-12.39 3.4-24.78 4.39-12.39-1.52-24.78-5.38-12.4-5.79-24.79-12.88-12.39-7.62-24.78-14.95-12.39-6.25-24.79-10.73-12.39-2.24-24.78-1.99-12.39 2.71-24.78 7.59-12.4 6.52-24.79 13.98-12.39 7.58-24.78 14.47-12.39 5.45-24.79 8.87-12.39 1.02-24.78-.46-12.39-3.84-24.78-9.61-12.4-7.08-24.79-14.7-12.39-7.34-24.78-13.6-12.39-4.51-24.78-6.78-12.4.22-24.79 2.91-12.39 4.85-24.78 11.36-12.39 7.45-24.79 15.03-12.39 6.91-24.78 12.38-19.09-1.1-26.65-15.8-.7-10.15-1.22-20.3-.32-10.15-.42-20.3.51-15.23 1.44-20.29 13.09-7.59 26.22-17.49 13.16-11.78 26.34-24.81 13.17-13.5 26.33-26.65 13.13-12.03 26.23-22.29 13.05-8.06 26.04-13.74 12.93-3.38 25.79-4.8 12.79-.02 25.5.63 12.64.56 25.2.24 12.49-1.84 24.91-5.7 12.35-6.11 24.66-14.48 12.25-10.37 24.46-22.26 12.19-12.75 24.36-25.62 12.16-12.25 24.33-23.21 12.18-9.16 24.39-16.19 12.25-4.84 24.54-7.68 12.36-1.24 24.78-1.45 12.5.13 25.07-.14 12.66-1.32 25.4-4.24 12.83-4.88 25.75-11.86 13.01-8.97 26.09-19.61 13.16-11.79 26.38-24.09 13.29-12.14 26.62-23.45 13.36-9.92 26.75-18.06 13.39-6.14 26.78-10.34 13.36-2.5 26.69-3.75 13.27-.56 26.47-1.09 13.12-1.14 26.13-3.46 12.91-3.92 25.69-9.71 12.64-7.66 25.13-17.03 12.35-10.7 24.53-22.23 12.03-11.73 23.89-23.07 11.7-10.36 23.25-19.29 9.61-2.23 19.22-3.35 9.59-.05 19.16.89 9.57 1.79 19.12 4.21 9.54 2.8 19.06 5.71 9.51 2.71 19.01 4.98 9.49 1.56 18.96 2.24 9.46-.33 18.91-1.74 9.43-2.48 18.85-5.93 9.41-4.28 18.8-9.17 9.38-5.25 18.75-10.59 9.36-5.15 18.71-9.84 9.33-3.99 18.65-7.11 9.31-2.11 18.61-3.16 9.28 0 18.56.96 9.26 1.76 18.51 4.12 9.25 2.7 18.48 5.48 9.22 2.58 18.43 4.7 9.2 1.42 18.4 1.97 9.18-.44 18.35-1.93 9.17-2.52 18.33-5.98 9.15-4.25 18.29-9.07 9.13-5.16 18.26-10.38 9.12-5.01 18.24-9.55 9.11-3.85 18.21-6.84 9.1-2 18.2-2.97 9.09.04 18.17 1 9.09 1.73 18.16 4.01 9.08 2.61 18.16 5.27 9.07 2.44 18.14 4.41 9.07 1.28 18.14 1.71 9.07-.55 18.14-2.12 9.07-2.56 18.14-6.02" filter="url(#e)"/></svg>