<svg xmlns="http://www.w3.org/2000/svg" viewBox="0 0 1422 800"><defs><linearGradient id="a" x1="50%" x2="50%" y1="0%" y2="100%"><stop offset="10%" stop-color="#ffefc6"/><stop offset="90%" stop-color="#9fa5ff"/></linearGradient><linearGradient id="b" x1="50%" x2="50%" y1="0%" y2="100%" gradientTransform="rotate(135 .5 .5)"><stop offset="25%" stop-color="#ffefc6"/><stop offset="100%" stop-color="#9fa5ff"/></linearGradient><linearGradient id="d" x1="50%" x2="50%" y1="0%" y2="100%" gradientTransform="rotate(333 .5 .5)"><stop offset="0%" stop-color="#ffefc6"/><stop offset="75%" stop-color="#9fa5ff"/></linearGradient><filter id="c" width="400%" height="400%" x="-100%" y="-100%" color-interpolation-filters="sRGB"><feGaussianBlur in="SourceGraphic" result="blur" stdDeviation="0.5 0"/><feDropShadow width="100%" height="100%" x="0%" y="0%" dx="10" dy="10" flood-color="#9fa5ff" flood-opacity=".25" in="blur" stdDeviation="12.308"/></filter><filter id="e" width="400%" height="400%" x="-100%" y="-100%" color-interpolation-filters="sRGB"><feGaussianBlur in="SourceGraphic" result="blur" stdDeviation="0.5 0"/><feDropShadow width="100%" height="100%" x="0%" y="0%" dx="-10" dy="-10" flood-color="#9fa5ff" flood-opacity=".25" in="blur" stdDeviation="12.308"/></filter></defs><path fill="url(#a)" d="M-131.54-86.78q12.99 1.45 25.98 3.19 12.99 1.92 25.98 3.93 12.99 2 25.98 3.87 12.99 1.65 25.97 2.99 12.99.97 25.98 1.5 12.98.08 25.97-.31 12.99-.82 25.98-2.04 12.99-1.56 25.98-3.37 12.99-1.97 25.98-3.98 12.99-1.97 25.97-3.78 12.99-1.55 25.98-2.78 12.99-.82 25.98-1.21 12.99.08 25.98.61 12.99.97 25.98 2.31 12.99 1.65 25.98 3.52 12.99 1.99 25.98 4.01 12.98 1.92 25.97 3.66 12.99 1.45 25.98 2.55 12.99.68 25.98.91 12.99-.23 25.98-.91 12.99-1.09 25.98-2.55 12.99-1.73 25.98-3.65 12.99-2.02 25.98-4.01 12.98-1.87 25.97-3.52 12.99-1.35 25.98-2.31 12.99-.54 25.98-.62 12.99.38 25.98 1.21 12.99 1.22 25.98 2.77 12.99 1.81 25.98 3.78 12.99 2.01 25.97 3.98 12.99 1.81 25.98 3.37 12.99 1.22 25.98 2.05 12.99.39 25.98.31 12.99-.53 25.98-1.49 12.99-1.34 25.98-2.99 12.99-1.87 25.98-3.87 12.99-2.01 25.97-3.93 12.99-1.74 25.98-3.2 12.99-1.1 25.98-1.78 12.99-.23 25.98-.01 12.99.68 25.98 1.78 12.99 1.45 25.98 3.18 12.99 1.92 25.98 3.94 12.99 1.99 25.97 3.87 12.99 1.65 25.98 2.99 12.99.97 25.98 1.51 12.99.08 25.98-.3 12.99-.82 25.98-2.04 12.99-1.56 25.98-3.36 12.99-1.97 25.98-3.99 12.99-1.96 25.98-3.77 12.98-1.56 25.97-2.79 12.99-.83 25.98-1.22 12.99.08 25.98.61 12.99.96 25.98 2.29 12.99 1.65 25.98 3.52 12.99 2 25.98 4.01 12.99 1.93 25.98 3.66 12.99 1.46 25.97 2.56 12.99.69 25.98.92 12.99-.22 25.98-.9 12.99-1.09 25.98-2.54 12.99-1.73 25.98-3.66 12.99-2.01 25.98-4 2.88 14.94 7.71 29.88 6.46 14.94 14.13 29.88 8.41 14.94 16.99 29.87 8.22 14.94 15.55 29.88 5.95 14.95 10.16 29.89 2.18 14.94 2.21 29.88-2.14 14.94-6.3 29.88-5.92 14.94-13.21 29.88-8.21 14.94-16.79 29.88-8.41 14.95-16.12 29.89-6.49 14.94-11.36 29.88-2.93 14.94-3.73 29.88 1.37 14.94 4.83 29.88 5.33 14.94 12.19 29.88 7.94 14.94 16.45 29.89 8.54 14.94 16.55 29.88 6.98 14.94 12.47 29.88 3.65 14.94 5.23 29.88-.6 14.94-3.34 29.88-4.7 14.94-11.05 29.89-7.61 14.94-15.98 29.88-8.59 14.94-16.85 29.88-7.41 14.94-13.47 29.88-4.34 14.94-6.68 29.88-.18 14.94 1.81 29.89 4.02 14.94 9.83 29.88 7.21 14.94 15.37 29.88 8.57 14.94 17.02 29.88 7.76 14.94 14.36 29.88 4.99 14.94 8.07 29.89.96 14.94-.26 29.88-3.32 14.94-8.53 29.88-13.58 5.26-27.16 10.56-13.58 5.07-27.16 9.64-13.58 3.82-27.16 6.7-13.59 1.79-27.17 2.38-13.58-.62-27.16-2.43-13.58-2.9-27.16-6.75-13.58-4.58-27.16-9.65-13.58-5.31-27.16-10.57-13.58-4.93-27.16-9.27-13.58-3.53-27.16-6.06-13.58-1.4-27.16-1.59-13.58 1.02-27.16 3.21-13.58 3.23-27.16 7.35-13.59 4.77-27.17 9.95-13.58 5.32-27.16 10.5-13.58 4.77-27.16 8.86-13.58 3.22-27.16 5.39-13.58 1-27.16.79-13.58-1.42-27.16-3.97-13.58-3.55-27.16-7.91-13.58-4.94-27.16-10.2-13.58-5.3-27.16-10.37-13.58-4.57-27.16-8.4-13.58-2.88-27.16-4.67-13.59-.6-27.17.01-13.58 1.81-27.16 4.71-13.58 3.84-27.16 8.42-13.58 5.07-27.16 10.38-13.58 5.25-27.16 10.19-13.58 4.34-27.16 7.88-13.58 2.53-27.16 3.94-13.58.19-27.16-.82-13.58-2.19-27.16-5.42-13.58-4.11-27.16-8.88-13.58-5.18-27.16-10.5-13.58-5.18-27.16-9.95-13.59-4.1-27.17-7.32-13.58-2.17-27.16-3.18-13.58.21-27.16 1.62-13.58 2.55-27.16 6.09-13.58 4.36-27.16 9.29-13.58 5.26-27.16 10.57-13.58 5.07-27.16 9.64-13.58 3.83-27.16 6.72-13.58 1.8-27.16 2.4-13.58-.61-27.16-2.41-13.58-2.89-27.16-6.73-13.58-4.57-27.16-9.65-13.58-5.3-27.17-10.56-13.58-4.93-27.16-9.29-13.58-3.53-27.16-6.08-13.58-1.4-27.16-1.61-13.58 1.02-27.16 3.19-13.58 3.23-27.16 7.34-13.58 4.76-27.16 9.95-13.58 5.32-27.16 10.5-13.58 4.77-27.16 8.87-13.58 3.23-27.16 5.4-13.57 1.02-27.15.81-13.58-1.41-27.16-3.95-13.58-3.54-27.16-7.89-13.58-4.93-27.16-10.19-13.58-5.3-27.17-10.38-13.58-4.57-27.16-8.41-1.67-14.82-2.74-29.65-.39-14.83-.08-29.65.99-14.83 2.59-29.66 2.12-14.82 4.62-29.65 2.71-14.83 5.47-29.65 2.62-14.83 4.94-29.66 1.87-14.82 3.16-29.65.64-14.82.58-29.65-.75-14.83-2.14-29.65-1.95-14.83-4.33-29.66-2.66-14.82-5.42-29.65-2.69-14.83-5.14-29.65-2.04-14.83-3.55-29.66-.88-14.82-1.07-29.65.5-14.83 1.68-29.65 1.76-14.83 4-29.65 2.58-14.83 5.33-29.66 2.73-14.82 5.28-29.65 2.21-14.83 3.92-29.65 1.11-14.83 1.56-29.66-.26-14.82-1.21-29.65-1.56-14.83-3.65-29.65-2.47-14.83-5.18-29.66-2.76-14.82-5.39-29.65-2.35-14.82-4.25-29.65-1.34-14.83-2.03-29.65.01-14.83.71-29.66 1.36-14.82 3.27-29.65 2.35-14.83 5-29.65 2.76-14.82 5.46-29.65 2.47-14.82 4.54-29.65 1.55-14.83 2.48-29.65"/><path fill="url(#b)" d="M-131.55-86.78q-.93 14.82-2.48 29.65-2.07 14.83-4.54 29.65-2.7 14.83-5.46 29.65-2.65 14.82-5 29.65-1.91 14.83-3.27 29.65-.7 14.83-.71 29.65.69 14.83 2.03 29.66 1.9 14.82 4.25 29.65 2.63 14.83 5.39 29.65 2.71 14.83 5.18 29.66 2.09 14.82 3.65 29.65.95 14.83 1.21 29.65-.45 14.83-1.56 29.66-1.71 14.82-3.92 29.65-2.55 14.82-5.28 29.65-2.75 14.83-5.33 29.65 9 1.7 18 3.65 9 2.15 18 4.46 9 2.4 18 4.85 9 2.43 17.99 4.8 9 2.23 18 4.29 9 1.82 18 3.38 9 1.25 18 2.17 17 .69 20.01.74 11.54-3.57 23.08-7.7 11.51-4.65 23-9.77 11.47-5.51 22.9-11.32 11.42-6 22.8-12.11 11.35-6.08 22.67-12.05 11.29-5.74 22.55-11.17 11.23-5.02 22.42-9.58 11.17-4.03 22.3-7.53 11.1-2.94 22.17-5.33 11.04-1.87 22.05-3.28 10.98-1 21.93-1.69 10.93-.45 21.84-.77 10.88-.28 21.75-.65 10.84-.53 21.67-1.34 10.81-1.15 21.62-2.72 10.79-2.05 21.57-4.6 10.78-3.09 21.55-6.69 10.78-4.11 21.55-8.69 10.78-4.98 21.57-10.31 10.8-5.58 21.61-11.32 10.82-5.82 21.66-11.6 10.86-5.66 21.74-11.1 10.9-5.14 21.83-9.91 10.95-4.34 21.94-8.21 11.02-3.38 22.07-6.26 11.08-2.39 22.2-4.32 11.16-1.52 22.35-2.69 11.24-.89 22.51-1.59 11.32-.6 22.67-1.19 11.4-.67 22.83-1.51 11.48-1.09 22.99-2.51 11.56-1.8 23.16-4.03 11.63-2.69 23.3-5.85 11.7-3.63 23.44-7.71 11.77-4.48 23.57-9.32 11.83-5.13 23.69-10.47 11.88-5.48 23.78-11 11.91-5.48 23.85-10.83 11.94-5.15 23.9-10.02 11.96-4.53 23.93-8.67 11.96-3.71 23.92-6.99 11.96-2.83 23.9-5.24 11.93-2 23.85-3.65 11.89-1.35 23.76-2.47 11.83-.96 23.64-1.84 11.77-.88 23.5-1.86 11.7-1.14 23.34-2.51 11.6-1.67 23.15-3.69 11.49-2.4 22.92-5.21 11.38-3.22 22.69-6.86 11.25-4.02 22.43-8.4 11.12-4.67 22.16-9.59 10.98-5.1 21.88-10.3 10.83-5.23 21.58-10.41 10.68-5.05 21.29-9.91 10.53-4.61 20.98-8.91 10.38-3.95 20.69-7.53 10.24-3.19 20.4-6 10.1-2.43 20.12-4.53 9.97-1.79 19.87-3.33 9.84-1.35 19.62-2.57 9.73-1.17 19.41-2.36 9.63-1.27 19.21-2.7 9.55-1.65 19.07-3.56-8.82-17.7-16.87-35.42-6.57-17.71-11.1-35.43-2.08-17.71-1.54-35.43 3.11-17.71 8.53-35.42-12.08-1.11-24.17-2.46-12.09-1.52-24.18-3.16-12.08-1.67-24.17-3.31-12.09-1.52-24.18-2.87-12.09-1.11-24.17-1.92-12.09-.49-24.18-.63-12.09.21-24.17.77-12.09.88-24.18 2.03-12.09 1.39-24.18 2.94-12.08 1.65-24.17 3.33-12.09 1.62-24.18 3.11-12.08 1.3-24.17 2.35-12.09.76-24.18 1.18-12.09.07-24.17-.21-12.09-.63-24.18-1.57-12.09-1.21-24.17-2.63-12.09-1.58-24.18-3.24-12.09-1.67-24.18-3.27-12.08-1.46-24.17-2.72-12.09-.99-24.18-1.68-12.09-.35-24.17-.35-12.09.35-24.18 1.04-12.09 1-24.17 2.26-12.09 1.46-24.18 3.06-12.09 1.67-24.18 3.33-12.08 1.58-24.17 3-12.09 1.21-24.18 2.14-12.08.63-24.17.91-12.09-.07-24.18-.5-12.09-.75-24.17-1.8-12.09-1.31-24.18-2.8-12.09-1.62-24.17-3.29-12.09-1.65-24.18-3.21-12.09-1.38-24.18-2.54-12.08-.88-24.17-1.43-12.09-.21-24.18-.07-12.08.49-24.17 1.31-12.09 1.11-24.18 2.45-12.09 1.53-24.17 3.17-12.09 1.67-24.18 3.31-12.09 1.52-24.18 2.87-12.08 1.1-24.17 1.91-12.09.49-24.18.63-12.08-.21-24.17-.77-12.09-.88-24.18-2.04-12.09-1.39-24.17-2.94-12.09-1.65-24.18-3.32-12.09-1.62-24.17-3.12-12.09-1.3-24.18-2.35-12.09-.75-24.18-1.17-12.08-.07-24.17.22-12.09.62-24.18 1.56-12.08 1.21-24.17 2.64-12.09 1.58-24.18 3.24-12.09 1.67-24.17 3.27-12.09 1.46-24.18 2.71-12.09.99-24.18 1.68-12.08.35-24.16.35-12.09-.36-24.18-1.05-12.08-1-24.17-2.25-12.09-1.47-24.18-3.07-12.09-1.67-24.17-3.33-12.09-1.57-24.18-3-15.8 5.83-15.49 27.9 3.34 15.06 5.97 30.16" filter="url(#c)"/><path fill="url(#d)" d="M1399.15 332.08q17.42 1.85 34.84 2.71 17.42-.84 34.84-2.67 8.71-1.43 17.42-3.12 8.71-1.9 17.43-3.96 8.71-2.19 17.42-4.44 8.71-2.26 17.42-4.49 7.59 17.43 16.76 34.86 9.94 17.44 19.8 34.87 8.91 17.43 16.09 34.86 4.82 17.43 6.87 34.86-.91 17.43-4.7 34.86-6.33 17.44-14.65 34.87-9.59 17.43-19.61 34.86-9.57 17.43-17.86 34.86-6.28 17.43-10.01 34.86-.84 17.43 1.27 34.87 4.87 17.43 12.1 34.86 8.93 17.43 18.8 34.86 9.94 17.43 19.08 34.86 7.55 17.43 12.84 34.86 2.58 17.44 2.21 34.87-3.27 17.43-9.17 34.86-12.46 4.82-24.92 9.69-12.45 4.72-24.91 9.07-12.46 3.78-24.91 6.84-12.46 2.19-24.92 3.43-12.45.21-24.91-.6-12.46-1.8-24.91-4.51-12.46-3.5-24.92-7.63-12.45-4.59-24.91-9.42-12.46-4.87-24.91-9.56-12.46-4.3-24.92-8.02-12.45-2.98-24.91-5.08-12.46-1.13-24.91-1.25-12.46.91-24.92 2.81-12.45 2.79-24.91 6.36-12.46 4.19-24.91 8.81-12.46 4.85-24.92 9.71-12.45 4.66-24.91 8.91-12.46 3.65-24.92 6.55-12.45 2.01-24.91 3.04-12.46.01-24.91-1-12.46-1.98-24.92-4.86-12.45-3.64-24.91-7.88-12.46-4.65-24.91-9.51-12.46-4.85-24.92-9.48-12.45-4.2-24.91-7.78-12.46-2.82-24.91-4.73-12.46-.94-24.92-.85-12.45 1.11-24.91 3.19-12.46 2.96-24.91 6.67-12.46 4.28-24.92 8.97-12.45 4.86-24.91 9.7-12.46 4.6-24.91 8.74-12.46 3.52-24.92 6.25-12.45 1.82-24.91 2.65-12.46-.19-24.91-1.4-12.46-2.17-24.92-5.21-12.45-3.77-24.91-8.1-12.46-4.71-24.92-9.59-12.45-4.82-24.91-9.38-12.46-4.09-24.91-7.54-12.46-2.64-24.92-4.37-12.45-.73-24.91-.44-12.46 1.31-24.91 3.57-12.46 3.12-24.92 6.95-12.45 4.38-24.91 9.12-12.46 4.88-24.91 9.69-12.46 4.52-24.92 8.55-12.45 3.38-24.91 5.93-12.46 1.64-24.91 2.27-12.46-.4-24.92-1.8-12.45-2.35-24.91-5.55-12.46-3.89-24.91-8.32-12.46-4.76-24.92-9.64-12.45-4.79-24.91-9.27-12.46-3.98-24.91-7.28-12.46-2.47-24.92-4-12.45-.53-24.91-.04-12.46 1.5-24.92 3.94-12.45 3.27-24.91 7.23-12.46 4.47-24.91 9.25-12.46 4.88-24.92 9.65-12.45 4.44-24.91 8.36-12.46 3.22-24.91 5.6Q-.28 897.9-7.5 882.89q-.43-10.15-.65-20.3-.02-10.15.17-20.3Q-7.05 827.07-6 822q13.2-6.86 26.41-14.69 13.22-8.73 26.43-18.24 13.19-10.13 26.34-20.7 13.1-10.8 26.16-21.62 12.99-10.63 25.91-20.87 12.85-9.68 25.63-18.62 12.7-8.11 25.32-15.29 12.55-6.23 25.03-11.52 12.41-4.39 24.76-7.99 12.3-2.92 24.55-5.34 12.21-2.09 24.4-4.05 12.17-2.02 24.34-4.31 12.18-2.72 24.37-6.05 12.22-4.06 24.48-8.94 12.31-5.75 24.67-12.41 12.43-7.51 24.93-15.83 12.58-9.01 25.24-18.58 12.74-9.98 25.56-20.18 12.9-10.25 25.89-20.35 13.06-9.78 26.19-19.09 13.19-8.69 26.43-16.66 13.29-7.17 26.61-13.52 13.34-5.53 26.68-10.27 13.34-4.04 26.65-7.49 13.27-2.98 26.5-5.67 13.15-2.55 26.22-5.13 12.98-2.79 25.85-5.95 12.75-3.65 25.37-7.92 12.48-4.98 24.82-10.7 12.19-6.49 24.22-13.73 11.88-7.93 23.61-16.47 11.58-9.03 23.02-18.43 9.57-3.84 19.14-7.75 9.55-3.91 19.09-7.75 9.52-3.68 19.04-7.15 9.5-3.19 18.98-6.05 9.48-2.48 18.94-4.56 9.45-1.64 18.89-2.84 9.43-.76 18.84-1.09 9.41.06 18.8.48 9.37.74 18.74 1.73 9.35 1.18 18.7 2.49 9.33 1.36 18.65 2.7 9.31 1.25 18.61 2.34 9.28.85 18.56 1.42 9.27.24 18.52.09 9.25-.55 18.49-1.52 9.23-1.41 18.44-3.25 9.21-2.24 18.42-4.87 9.19-2.97 18.37-6.23 9.18-3.49 18.35-7.16 9.16-3.77 18.32-7.57 9.15-3.77 18.29-7.43 9.14-3.48 18.27-6.72 9.13-2.95 18.25-5.56 9.12-2.23 18.23-4.06 9.12-1.42 18.22-2.4 9.11-.58 18.21-.76 9.1.18 18.2.69 9.1.78 18.19 1.77 9.1 1.14 18.2 2.37 9.1 1.24 18.19 2.43 9.1 1.06 18.21 1.94 9.1.63 18.21.96" filter="url(#e)"/></svg>