<svg xmlns="http://www.w3.org/2000/svg" version="1.1" xmlns:xlink="http://www.w3.org/1999/xlink" xmlns:svgjs="http://svgjs.dev/svgjs" viewBox="0 0 1422 800"><defs><filter id="uuunion-blur" x="-100%" y="-100%" width="400%" height="400%" color-interpolation-filters="sRGB">
        <feGaussianBlur in="SourceGraphic" stdDeviation="0.5 0" result="blur"></feGaussianBlur>
        <feDropShadow stdDeviation="12.307692307692308" in="blur" dx="10" dy="10" flood-color="#9fa5ff" flood-opacity="0.25" x="0%" y="0%" width="100%" height="100%"></feDropShadow>
      </filter><filter id="uuunion-blur2" x="-100%" y="-100%" width="400%" height="400%" color-interpolation-filters="sRGB">
        <feGaussianBlur in="SourceGraphic" stdDeviation="0.5 0" result="blur"></feGaussianBlur>
        <feDropShadow stdDeviation="12.307692307692308" in="blur" dx="-10" dy="-10" flood-color="#9fa5ff" flood-opacity="0.25" x="0%" y="0%" width="100%" height="100%"></feDropShadow>
      </filter><linearGradient gradientTransform="rotate(0, 0.5, 0.5)" x1="50%" y1="0%" x2="50%" y2="100%" id="uuunion-grad"><stop stop-color="#ffefc6" offset="10%"></stop><stop stop-color="#9fa5ff" offset="90%"></stop></linearGradient><linearGradient gradientTransform="rotate(135, 0.5, 0.5)" x1="50%" y1="0%" x2="50%" y2="100%" id="uuunion-grad2"><stop stop-color="#ffefc6" offset="25%"></stop><stop stop-color="#9fa5ff" offset="100%"></stop></linearGradient><linearGradient gradientTransform="rotate(333, 0.5, 0.5)" x1="50%" y1="0%" x2="50%" y2="100%" id="uuunion-grad3"><stop stop-color="#ffefc6" offset="0%"></stop><stop stop-color="#9fa5ff" offset="75%"></stop></linearGradient></defs><path d="M-131.54 -86.78Q-118.55 -85.33 -105.56 -83.59 -92.57 -81.67 -79.58 -79.66 -66.59 -77.66 -53.6 -75.79 -40.61 -74.14 -27.63 -72.8 -14.64 -71.83 -1.65 -71.3 11.33 -71.22 24.32 -71.61 37.31 -72.43 50.3 -73.65 63.29 -75.21 76.28 -77.02 89.27 -78.99 102.26 -81 115.25 -82.97 128.23 -84.78 141.22 -86.33 154.21 -87.56 167.2 -88.38 180.19 -88.77 193.18 -88.69 206.17 -88.16 219.16 -87.19 232.15 -85.85 245.14 -84.2 258.13 -82.33 271.12 -80.34 284.11 -78.32 297.09 -76.4 310.08 -74.66 323.07 -73.21 336.06 -72.11 349.05 -71.43 362.04 -71.2 375.03 -71.43 388.02 -72.11 401.01 -73.2 414 -74.66 426.99 -76.39 439.98 -78.31 452.97 -80.33 465.96 -82.32 478.94 -84.19 491.93 -85.84 504.92 -87.19 517.91 -88.15 530.9 -88.69 543.89 -88.77 556.88 -88.39 569.87 -87.56 582.86 -86.34 595.85 -84.79 608.84 -82.98 621.83 -81.01 634.82 -79 647.8 -77.03 660.79 -75.22 673.78 -73.66 686.77 -72.44 699.76 -71.61 712.75 -71.22 725.74 -71.3 738.73 -71.83 751.72 -72.79 764.71 -74.13 777.7 -75.78 790.69 -77.65 803.68 -79.65 816.67 -81.66 829.65 -83.58 842.64 -85.32 855.63 -86.78 868.62 -87.88 881.61 -88.56 894.6 -88.79 907.59 -88.57 920.58 -87.89 933.57 -86.79 946.56 -85.34 959.55 -83.61 972.54 -81.69 985.53 -79.67 998.52 -77.68 1011.5 -75.8 1024.49 -74.15 1037.48 -72.81 1050.47 -71.84 1063.46 -71.3 1076.45 -71.22 1089.44 -71.6 1102.43 -72.42 1115.42 -73.64 1128.41 -75.2 1141.4 -77 1154.39 -78.97 1167.38 -80.99 1180.37 -82.95 1193.36 -84.76 1206.34 -86.32 1219.33 -87.55 1232.32 -88.38 1245.31 -88.77 1258.3 -88.69 1271.29 -88.16 1284.28 -87.2 1297.27 -85.87 1310.26 -84.22 1323.25 -82.35 1336.24 -80.35 1349.23 -78.34 1362.22 -76.41 1375.21 -74.68 1388.2 -73.22 1401.18 -72.12 1414.17 -71.43 1427.16 -71.2 1440.15 -71.42 1453.14 -72.1 1466.13 -73.19 1479.12 -74.64 1492.11 -76.37 1505.1 -78.3 1518.09 -80.31 1531.08 -82.3 1533.96 -67.36 1538.79 -52.42 1545.25 -37.48 1552.92 -22.54 1561.33 -7.6 1569.91 7.33 1578.13 22.27 1585.46 37.21 1591.41 52.16 1595.62 67.1 1597.8 82.04 1597.83 96.98 1595.69 111.92 1591.53 126.86 1585.61 141.8 1578.32 156.74 1570.11 171.68 1561.53 186.62 1553.12 201.57 1545.41 216.51 1538.92 231.45 1534.05 246.39 1531.12 261.33 1530.32 276.27 1531.69 291.21 1535.15 306.15 1540.48 321.09 1547.34 336.03 1555.28 350.97 1563.79 365.92 1572.33 380.86 1580.34 395.8 1587.32 410.74 1592.81 425.68 1596.46 440.62 1598.04 455.56 1597.44 470.5 1594.7 485.44 1590 500.38 1583.65 515.33 1576.04 530.27 1567.67 545.21 1559.08 560.15 1550.82 575.09 1543.41 590.03 1537.35 604.97 1533.01 619.91 1530.67 634.85 1530.49 649.79 1532.48 664.74 1536.5 679.68 1542.31 694.62 1549.52 709.56 1557.68 724.5 1566.25 739.44 1574.7 754.38 1582.46 769.32 1589.06 784.26 1594.05 799.2 1597.13 814.15 1598.09 829.09 1596.87 844.03 1593.55 858.97 1588.34 873.91 1574.76 879.17 1561.18 884.47 1547.6 889.54 1534.02 894.11 1520.44 897.93 1506.86 900.81 1493.27 902.6 1479.69 903.19 1466.11 902.57 1452.53 900.76 1438.95 897.86 1425.37 894.01 1411.79 889.43 1398.21 884.36 1384.63 879.05 1371.05 873.79 1357.47 868.86 1343.89 864.52 1330.31 860.99 1316.73 858.46 1303.15 857.06 1289.57 856.87 1275.99 857.89 1262.41 860.08 1248.83 863.31 1235.25 867.43 1221.66 872.2 1208.08 877.38 1194.5 882.7 1180.92 887.88 1167.34 892.65 1153.76 896.74 1140.18 899.96 1126.6 902.13 1113.02 903.13 1099.44 902.92 1085.86 901.5 1072.28 898.95 1058.7 895.4 1045.12 891.04 1031.54 886.1 1017.96 880.84 1004.38 875.54 990.8 870.47 977.22 865.9 963.64 862.07 950.06 859.19 936.48 857.4 922.89 856.8 909.31 857.41 895.73 859.22 882.15 862.12 868.57 865.96 854.99 870.54 841.41 875.61 827.83 880.92 814.25 886.17 800.67 891.11 787.09 895.45 773.51 898.99 759.93 901.52 746.35 902.93 732.77 903.12 719.19 902.11 705.61 899.92 692.03 896.69 678.45 892.58 664.87 887.81 651.29 882.63 637.71 877.31 624.13 872.13 610.55 867.36 596.96 863.26 583.38 860.04 569.8 857.87 556.22 856.86 542.64 857.07 529.06 858.48 515.48 861.03 501.9 864.57 488.32 868.93 474.74 873.86 461.16 879.12 447.58 884.43 434 889.5 420.42 894.07 406.84 897.9 393.26 900.79 379.68 902.59 366.1 903.19 352.52 902.58 338.94 900.78 325.36 897.89 311.78 894.05 298.2 889.48 284.62 884.4 271.04 879.1 257.45 873.84 243.87 868.91 230.29 864.55 216.71 861.02 203.13 858.47 189.55 857.07 175.97 856.86 162.39 857.88 148.81 860.05 135.23 863.28 121.65 867.39 108.07 872.15 94.49 877.34 80.91 882.66 67.33 887.84 53.75 892.61 40.17 896.71 26.59 899.94 13.01 902.11 -0.56 903.13 -14.14 902.92 -27.72 901.51 -41.3 898.97 -54.88 895.43 -68.46 891.08 -82.04 886.15 -95.62 880.89 -109.2 875.59 -122.79 870.51 -136.37 865.94 -149.95 862.1 -151.62 847.28 -152.69 832.45 -153.08 817.62 -152.77 802.8 -151.78 787.97 -150.18 773.14 -148.06 758.32 -145.56 743.49 -142.85 728.66 -140.09 713.84 -137.47 699.01 -135.15 684.18 -133.28 669.36 -131.99 654.53 -131.35 639.71 -131.41 624.88 -132.16 610.05 -133.55 595.23 -135.5 580.4 -137.88 565.57 -140.54 550.75 -143.3 535.92 -145.99 521.09 -148.44 506.27 -150.48 491.44 -151.99 476.61 -152.87 461.79 -153.06 446.96 -152.56 432.13 -151.38 417.31 -149.62 402.48 -147.38 387.66 -144.8 372.83 -142.05 358 -139.32 343.18 -136.77 328.35 -134.56 313.52 -132.85 298.7 -131.74 283.87 -131.29 269.04 -131.55 254.22 -132.5 239.39 -134.06 224.56 -136.15 209.74 -138.62 194.91 -141.33 180.08 -144.09 165.26 -146.72 150.43 -149.07 135.61 -150.97 120.78 -152.31 105.95 -153 91.13 -152.99 76.3 -152.29 61.47 -150.93 46.65 -149.02 31.82 -146.67 16.99 -144.02 2.17 -141.26 -12.65 -138.56 -27.48 -136.09 -42.3 -134.02 -57.13 -132.47 -71.96 -131.54 -86.78" fill="url(#uuunion-grad)"></path><path d="M-131.55 -86.78Q-132.48 -71.96 -134.03 -57.13 -136.1 -42.3 -138.57 -27.48 -141.27 -12.65 -144.03 2.17 -146.68 16.99 -149.03 31.82 -150.94 46.65 -152.3 61.47 -153 76.3 -153.01 91.12 -152.32 105.95 -150.98 120.78 -149.08 135.6 -146.73 150.43 -144.1 165.26 -141.34 180.08 -138.63 194.91 -136.16 209.74 -134.07 224.56 -132.51 239.39 -131.56 254.22 -131.3 269.04 -131.75 283.87 -132.86 298.7 -134.57 313.52 -136.78 328.35 -139.33 343.17 -142.06 358 -144.81 372.83 -147.39 387.65 -138.39 389.35 -129.39 391.3 -120.39 393.45 -111.39 395.76 -102.39 398.16 -93.39 400.61 -84.39 403.04 -75.4 405.41 -66.4 407.64 -57.4 409.7 -48.4 411.52 -39.4 413.08 -30.4 414.33 -21.4 415.25 -4.4 415.94 -1.39 415.99 10.15 412.42 21.69 408.29 33.2 403.64 44.69 398.52 56.16 393.01 67.59 387.2 79.01 381.2 90.39 375.09 101.74 369.01 113.06 363.04 124.35 357.3 135.61 351.87 146.84 346.85 158.03 342.29 169.2 338.26 180.33 334.76 191.43 331.82 202.5 329.43 213.54 327.56 224.55 326.15 235.53 325.15 246.48 324.46 257.41 324.01 268.32 323.69 279.2 323.41 290.07 323.04 300.91 322.51 311.74 321.7 322.55 320.55 333.36 318.98 344.15 316.93 354.93 314.38 365.71 311.29 376.48 307.69 387.26 303.58 398.03 299 408.81 294.02 419.6 288.69 430.4 283.11 441.21 277.37 452.03 271.55 462.87 265.77 473.73 260.11 484.61 254.67 495.51 249.53 506.44 244.76 517.39 240.42 528.38 236.55 539.4 233.17 550.45 230.29 561.53 227.9 572.65 225.97 583.81 224.45 595 223.28 606.24 222.39 617.51 221.69 628.83 221.09 640.18 220.5 651.58 219.83 663.01 218.99 674.49 217.9 686 216.48 697.56 214.68 709.16 212.45 720.79 209.76 732.46 206.6 744.16 202.97 755.9 198.89 767.67 194.41 779.47 189.57 791.3 184.44 803.16 179.1 815.04 173.62 826.94 168.1 838.85 162.62 850.79 157.27 862.73 152.12 874.69 147.25 886.65 142.72 898.62 138.58 910.58 134.87 922.54 131.59 934.5 128.76 946.44 126.35 958.37 124.35 970.29 122.7 982.18 121.35 994.05 120.23 1005.88 119.27 1017.69 118.39 1029.46 117.51 1041.19 116.53 1052.89 115.39 1064.53 114.02 1076.13 112.35 1087.68 110.33 1099.17 107.93 1110.6 105.12 1121.98 101.9 1133.29 98.26 1144.54 94.24 1155.72 89.86 1166.84 85.19 1177.88 80.27 1188.86 75.17 1199.76 69.97 1210.59 64.74 1221.34 59.56 1232.02 54.51 1242.63 49.65 1253.16 45.04 1263.61 40.74 1273.99 36.79 1284.3 33.21 1294.54 30.02 1304.7 27.21 1314.8 24.78 1324.82 22.68 1334.79 20.89 1344.69 19.35 1354.53 18 1364.31 16.78 1374.04 15.61 1383.72 14.42 1393.35 13.15 1402.93 11.72 1412.48 10.07 1422 8.16 1413.18 -9.54 1405.13 -27.26 1398.56 -44.97 1394.03 -62.69 1391.95 -80.4 1392.49 -98.12 1395.6 -115.83 1401.02 -133.54 1388.94 -134.65 1376.85 -136 1364.76 -137.52 1352.67 -139.16 1340.59 -140.83 1328.5 -142.47 1316.41 -143.99 1304.32 -145.34 1292.23 -146.45 1280.15 -147.26 1268.06 -147.75 1255.97 -147.89 1243.88 -147.68 1231.8 -147.12 1219.71 -146.24 1207.62 -145.09 1195.53 -143.7 1183.44 -142.15 1171.36 -140.5 1159.27 -138.82 1147.18 -137.2 1135.09 -135.71 1123.01 -134.41 1110.92 -133.36 1098.83 -132.6 1086.74 -132.18 1074.65 -132.11 1062.57 -132.39 1050.48 -133.02 1038.39 -133.96 1026.3 -135.17 1014.22 -136.59 1002.13 -138.17 990.04 -139.83 977.95 -141.5 965.86 -143.1 953.78 -144.56 941.69 -145.82 929.6 -146.81 917.51 -147.5 905.42 -147.85 893.34 -147.85 881.25 -147.5 869.16 -146.81 857.07 -145.81 844.99 -144.55 832.9 -143.09 820.81 -141.49 808.72 -139.82 796.63 -138.16 784.55 -136.58 772.46 -135.16 760.37 -133.95 748.28 -133.02 736.2 -132.39 724.11 -132.11 712.02 -132.18 699.93 -132.61 687.84 -133.36 675.76 -134.41 663.67 -135.72 651.58 -137.21 639.49 -138.83 627.41 -140.5 615.32 -142.15 603.23 -143.71 591.14 -145.09 579.05 -146.25 566.97 -147.13 554.88 -147.68 542.79 -147.89 530.7 -147.75 518.62 -147.26 506.53 -146.44 494.44 -145.33 482.35 -143.99 470.26 -142.46 458.18 -140.82 446.09 -139.15 434 -137.51 421.91 -135.99 409.82 -134.64 397.74 -133.54 385.65 -132.73 373.56 -132.24 361.47 -132.1 349.39 -132.31 337.3 -132.87 325.21 -133.75 313.12 -134.91 301.03 -136.3 288.95 -137.85 276.86 -139.5 264.77 -141.17 252.68 -142.79 240.6 -144.29 228.51 -145.59 216.42 -146.64 204.33 -147.39 192.24 -147.81 180.16 -147.88 168.07 -147.59 155.98 -146.97 143.89 -146.03 131.81 -144.82 119.72 -143.39 107.63 -141.81 95.54 -140.15 83.45 -138.48 71.37 -136.88 59.28 -135.42 47.19 -134.17 35.1 -133.18 23.01 -132.49 10.93 -132.14 -1.15 -132.14 -13.24 -132.5 -25.33 -133.19 -37.41 -134.19 -49.5 -135.44 -61.59 -136.91 -73.68 -138.51 -85.77 -140.18 -97.85 -141.84 -109.94 -143.41 -122.03 -144.84 -137.83 -139.01 -137.52 -116.94 -134.18 -101.88 -131.55 -86.78" fill="url(#uuunion-grad2)" filter="url(#uuunion-blur)"></path><path d="M1399.15 332.08Q1416.57 333.93 1433.99 334.79 1451.41 333.95 1468.83 332.12 1477.54 330.69 1486.25 329 1494.96 327.1 1503.68 325.04 1512.39 322.85 1521.1 320.6 1529.81 318.34 1538.52 316.11 1546.11 333.54 1555.28 350.97 1565.22 368.41 1575.08 385.84 1583.99 403.27 1591.17 420.7 1595.99 438.13 1598.04 455.56 1597.13 472.99 1593.34 490.42 1587.01 507.86 1578.69 525.29 1569.1 542.72 1559.08 560.15 1549.51 577.58 1541.22 595.01 1534.94 612.44 1531.21 629.87 1530.37 647.3 1532.48 664.74 1537.35 682.17 1544.58 699.6 1553.51 717.03 1563.38 734.46 1573.32 751.89 1582.46 769.32 1590.01 786.75 1595.3 804.18 1597.88 821.62 1597.51 839.05 1594.24 856.48 1588.34 873.91 1575.88 878.73 1563.42 883.6 1550.97 888.32 1538.51 892.67 1526.05 896.45 1513.6 899.51 1501.14 901.7 1488.68 902.94 1476.23 903.15 1463.77 902.34 1451.31 900.54 1438.86 897.83 1426.4 894.33 1413.94 890.2 1401.49 885.61 1389.03 880.78 1376.57 875.91 1364.12 871.22 1351.66 866.92 1339.2 863.2 1326.75 860.22 1314.29 858.12 1301.83 856.99 1289.38 856.87 1276.92 857.78 1264.46 859.68 1252.01 862.47 1239.55 866.04 1227.09 870.23 1214.64 874.85 1202.18 879.7 1189.72 884.56 1177.27 889.22 1164.81 893.47 1152.35 897.12 1139.89 900.02 1127.44 902.03 1114.98 903.06 1102.52 903.07 1090.07 902.06 1077.61 900.08 1065.15 897.2 1052.7 893.56 1040.24 889.32 1027.78 884.67 1015.33 879.81 1002.87 874.96 990.41 870.33 977.96 866.13 965.5 862.55 953.04 859.73 940.59 857.82 928.13 856.88 915.67 856.97 903.22 858.08 890.76 860.16 878.3 863.12 865.85 866.83 853.39 871.11 840.93 875.8 828.48 880.66 816.02 885.5 803.56 890.1 791.11 894.24 778.65 897.76 766.19 900.49 753.74 902.31 741.28 903.14 728.82 902.95 716.37 901.74 703.91 899.57 691.45 896.53 679 892.76 666.54 888.43 654.08 883.72 641.62 878.84 629.17 874.02 616.71 869.46 604.25 865.37 591.8 861.92 579.34 859.28 566.88 857.55 554.43 856.82 541.97 857.11 529.51 858.42 517.06 860.68 504.6 863.8 492.14 867.63 479.69 872.01 467.23 876.75 454.77 881.63 442.32 886.44 429.86 890.96 417.4 894.99 404.95 898.37 392.49 900.92 380.03 902.56 367.58 903.19 355.12 902.79 342.66 901.39 330.21 899.04 317.75 895.84 305.29 891.95 292.84 887.52 280.38 882.76 267.92 877.88 255.47 873.09 243.01 868.61 230.55 864.63 218.1 861.33 205.64 858.86 193.18 857.33 180.73 856.8 168.27 857.29 155.81 858.79 143.35 861.23 130.9 864.5 118.44 868.46 105.98 872.93 93.53 877.71 81.07 882.59 68.61 887.36 56.16 891.8 43.7 895.72 31.24 898.94 18.79 901.32 -0.28 897.9 -7.5 882.89 -7.93 872.74 -8.15 862.59 -8.17 852.44 -7.98 842.29 -7.05 827.07 -6 822 7.2 815.14 20.41 807.31 33.63 798.58 46.84 789.07 60.03 778.94 73.18 768.37 86.28 757.57 99.34 746.75 112.33 736.12 125.25 725.88 138.1 716.2 150.88 707.26 163.58 699.15 176.2 691.97 188.75 685.74 201.23 680.45 213.64 676.06 225.99 672.46 238.29 669.54 250.54 667.12 262.75 665.03 274.94 663.07 287.11 661.05 299.28 658.76 311.46 656.04 323.65 652.71 335.87 648.65 348.13 643.77 360.44 638.02 372.8 631.36 385.23 623.85 397.73 615.53 410.31 606.52 422.97 596.95 435.71 586.97 448.53 576.77 461.43 566.52 474.42 556.42 487.48 546.64 500.61 537.33 513.8 528.64 527.04 520.67 540.33 513.5 553.65 507.15 566.99 501.62 580.33 496.88 593.67 492.84 606.98 489.39 620.25 486.41 633.48 483.72 646.63 481.17 659.7 478.59 672.68 475.8 685.55 472.64 698.3 468.99 710.92 464.72 723.4 459.74 735.74 454.02 747.93 447.53 759.96 440.29 771.84 432.36 783.57 423.82 795.15 414.79 806.59 405.39 816.16 401.55 825.73 397.64 835.28 393.73 844.82 389.89 854.34 386.21 863.86 382.74 873.36 379.55 882.84 376.69 892.32 374.21 901.78 372.13 911.23 370.49 920.67 369.29 930.1 368.53 939.51 368.2 948.92 368.26 958.31 368.68 967.68 369.42 977.05 370.41 986.4 371.59 995.75 372.9 1005.08 374.26 1014.4 375.6 1023.71 376.85 1033.01 377.94 1042.29 378.79 1051.57 379.36 1060.84 379.6 1070.09 379.45 1079.34 378.9 1088.58 377.93 1097.81 376.52 1107.02 374.68 1116.23 372.44 1125.44 369.81 1134.63 366.84 1143.81 363.58 1152.99 360.09 1162.16 356.42 1171.32 352.65 1180.48 348.85 1189.63 345.08 1198.77 341.42 1207.91 337.94 1217.04 334.7 1226.17 331.75 1235.29 329.14 1244.41 326.91 1253.52 325.08 1262.64 323.66 1271.74 322.68 1280.85 322.1 1289.95 321.92 1299.05 322.1 1308.15 322.61 1317.25 323.39 1326.34 324.38 1335.44 325.52 1344.54 326.75 1353.64 327.99 1362.73 329.18 1371.83 330.24 1380.94 331.12 1390.04 331.75 1399.15 332.08" fill="url(#uuunion-grad3)" filter="url(#uuunion-blur2)"></path></svg>