<svg id="visual" viewBox="0 0 1920 1080" width="1920" height="1080" xmlns="http://www.w3.org/2000/svg" xmlns:xlink="http://www.w3.org/1999/xlink" version="1.1"><rect x="0" y="0" width="1920" height="1080" fill="#fff"></rect><path d="M0 395L29.2 410.2C58.3 425.3 116.7 455.7 174.8 460.5C233 465.3 291 444.7 349.2 443.5C407.3 442.3 465.7 460.7 523.8 443.8C582 427 640 375 698.2 371.7C756.3 368.3 814.7 413.7 872.8 433.2C931 452.7 989 446.3 1047.2 439.7C1105.3 433 1163.7 426 1221.8 437C1280 448 1338 477 1396.2 460.2C1454.3 443.3 1512.7 380.7 1570.8 368.8C1629 357 1687 396 1745.2 398.8C1803.3 401.7 1861.7 368.3 1890.8 351.7L1920 335L1920 1081L1890.8 1081C1861.7 1081 1803.3 1081 1745.2 1081C1687 1081 1629 1081 1570.8 1081C1512.7 1081 1454.3 1081 1396.2 1081C1338 1081 1280 1081 1221.8 1081C1163.7 1081 1105.3 1081 1047.2 1081C989 1081 931 1081 872.8 1081C814.7 1081 756.3 1081 698.2 1081C640 1081 582 1081 523.8 1081C465.7 1081 407.3 1081 349.2 1081C291 1081 233 1081 174.8 1081C116.7 1081 58.3 1081 29.2 1081L0 1081Z" fill="#65a7f5"></path><path d="M0 558L29.2 534.7C58.3 511.3 116.7 464.7 174.8 461C233 457.3 291 496.7 349.2 517.8C407.3 539 465.7 542 523.8 528.2C582 514.3 640 483.7 698.2 486.8C756.3 490 814.7 527 872.8 545.7C931 564.3 989 564.7 1047.2 559.8C1105.3 555 1163.7 545 1221.8 531.3C1280 517.7 1338 500.3 1396.2 508.2C1454.3 516 1512.7 549 1570.8 557.2C1629 565.3 1687 548.7 1745.2 551.7C1803.3 554.7 1861.7 577.3 1890.8 588.7L1920 600L1920 1081L1890.8 1081C1861.7 1081 1803.3 1081 1745.2 1081C1687 1081 1629 1081 1570.8 1081C1512.7 1081 1454.3 1081 1396.2 1081C1338 1081 1280 1081 1221.8 1081C1163.7 1081 1105.3 1081 1047.2 1081C989 1081 931 1081 872.8 1081C814.7 1081 756.3 1081 698.2 1081C640 1081 582 1081 523.8 1081C465.7 1081 407.3 1081 349.2 1081C291 1081 233 1081 174.8 1081C116.7 1081 58.3 1081 29.2 1081L0 1081Z" fill="#458df0"></path><path d="M0 608L29.2 613.8C58.3 619.7 116.7 631.3 174.8 640.8C233 650.3 291 657.7 349.2 656.8C407.3 656 465.7 647 523.8 632.8C582 618.7 640 599.3 698.2 585.2C756.3 571 814.7 562 872.8 557.2C931 552.3 989 551.7 1047.2 552C1105.3 552.3 1163.7 553.7 1221.8 571C1280 588.3 1338 621.7 1396.2 627.8C1454.3 634 1512.7 613 1570.8 596.8C1629 580.7 1687 569.3 1745.2 578.5C1803.3 587.7 1861.7 617.3 1890.8 632.2L1920 647L1920 1081L1890.8 1081C1861.7 1081 1803.3 1081 1745.2 1081C1687 1081 1629 1081 1570.8 1081C1512.7 1081 1454.3 1081 1396.2 1081C1338 1081 1280 1081 1221.8 1081C1163.7 1081 1105.3 1081 1047.2 1081C989 1081 931 1081 872.8 1081C814.7 1081 756.3 1081 698.2 1081C640 1081 582 1081 523.8 1081C465.7 1081 407.3 1081 349.2 1081C291 1081 233 1081 174.8 1081C116.7 1081 58.3 1081 29.2 1081L0 1081Z" fill="#2f72e8"></path><path d="M0 723L29.2 715.5C58.3 708 116.7 693 174.8 697.5C233 702 291 726 349.2 731.3C407.3 736.7 465.7 723.3 523.8 710C582 696.7 640 683.3 698.2 688.5C756.3 693.7 814.7 717.3 872.8 715.3C931 713.3 989 685.7 1047.2 683.3C1105.3 681 1163.7 704 1221.8 703.3C1280 702.7 1338 678.3 1396.2 684.3C1454.3 690.3 1512.7 726.7 1570.8 724.2C1629 721.7 1687 680.3 1745.2 665.3C1803.3 650.3 1861.7 661.7 1890.8 667.3L1920 673L1920 1081L1890.8 1081C1861.7 1081 1803.3 1081 1745.2 1081C1687 1081 1629 1081 1570.8 1081C1512.7 1081 1454.3 1081 1396.2 1081C1338 1081 1280 1081 1221.8 1081C1163.7 1081 1105.3 1081 1047.2 1081C989 1081 931 1081 872.8 1081C814.7 1081 756.3 1081 698.2 1081C640 1081 582 1081 523.8 1081C465.7 1081 407.3 1081 349.2 1081C291 1081 233 1081 174.8 1081C116.7 1081 58.3 1081 29.2 1081L0 1081Z" fill="#2c66e4"></path><path d="M0 826L29.2 824C58.3 822 116.7 818 174.8 805.7C233 793.3 291 772.7 349.2 762.8C407.3 753 465.7 754 523.8 759.2C582 764.3 640 773.7 698.2 779.8C756.3 786 814.7 789 872.8 779C931 769 989 746 1047.2 755.7C1105.3 765.3 1163.7 807.7 1221.8 815.5C1280 823.3 1338 796.7 1396.2 775.3C1454.3 754 1512.7 738 1570.8 731.7C1629 725.3 1687 728.7 1745.2 735.2C1803.3 741.7 1861.7 751.3 1890.8 756.2L1920 761L1920 1081L1890.8 1081C1861.7 1081 1803.3 1081 1745.2 1081C1687 1081 1629 1081 1570.8 1081C1512.7 1081 1454.3 1081 1396.2 1081C1338 1081 1280 1081 1221.8 1081C1163.7 1081 1105.3 1081 1047.2 1081C989 1081 931 1081 872.8 1081C814.7 1081 756.3 1081 698.2 1081C640 1081 582 1081 523.8 1081C465.7 1081 407.3 1081 349.2 1081C291 1081 233 1081 174.8 1081C116.7 1081 58.3 1081 29.2 1081L0 1081Z" fill="#2f72e8"></path><path d="M0 919L29.2 906.5C58.3 894 116.7 869 174.8 867.3C233 865.7 291 887.3 349.2 903.5C407.3 919.7 465.7 930.3 523.8 934C582 937.7 640 934.3 698.2 928.7C756.3 923 814.7 915 872.8 901.7C931 888.3 989 869.7 1047.2 863.2C1105.3 856.7 1163.7 862.3 1221.8 856.7C1280 851 1338 834 1396.2 830C1454.3 826 1512.7 835 1570.8 845.3C1629 855.7 1687 867.3 1745.2 871.5C1803.3 875.7 1861.7 872.3 1890.8 870.7L1920 869L1920 1081L1890.8 1081C1861.7 1081 1803.3 1081 1745.2 1081C1687 1081 1629 1081 1570.8 1081C1512.7 1081 1454.3 1081 1396.2 1081C1338 1081 1280 1081 1221.8 1081C1163.7 1081 1105.3 1081 1047.2 1081C989 1081 931 1081 872.8 1081C814.7 1081 756.3 1081 698.2 1081C640 1081 582 1081 523.8 1081C465.7 1081 407.3 1081 349.2 1081C291 1081 233 1081 174.8 1081C116.7 1081 58.3 1081 29.2 1081L0 1081Z" fill="#458df0"></path><path d="M0 1007L29.2 1002.3C58.3 997.7 116.7 988.3 174.8 978.3C233 968.3 291 957.7 349.2 962.2C407.3 966.7 465.7 986.3 523.8 993C582 999.7 640 993.3 698.2 979.3C756.3 965.3 814.7 943.7 872.8 938.3C931 933 989 944 1047.2 945C1105.3 946 1163.7 937 1221.8 933.2C1280 929.3 1338 930.7 1396.2 938.5C1454.3 946.3 1512.7 960.7 1570.8 964.2C1629 967.7 1687 960.3 1745.2 962.8C1803.3 965.3 1861.7 977.7 1890.8 983.8L1920 990L1920 1081L1890.8 1081C1861.7 1081 1803.3 1081 1745.2 1081C1687 1081 1629 1081 1570.8 1081C1512.7 1081 1454.3 1081 1396.2 1081C1338 1081 1280 1081 1221.8 1081C1163.7 1081 1105.3 1081 1047.2 1081C989 1081 931 1081 872.8 1081C814.7 1081 756.3 1081 698.2 1081C640 1081 582 1081 523.8 1081C465.7 1081 407.3 1081 349.2 1081C291 1081 233 1081 174.8 1081C116.7 1081 58.3 1081 29.2 1081L0 1081Z" fill="#65a7f5"></path></svg>