<svg xmlns="http://www.w3.org/2000/svg" viewBox="0 0 500 500"><g id="freepik--background-simple--inject-2"><path d="M317.87,86c-27.21-20.68-76.22-21.6-107.56,4.9-34.61,29.27-36.8,82.64-71.77,109.16-35.55,27-77,13.94-81.39,80.38-3.37,51.2,36.14,51.3,69.21,57.67,59.39,11.43,168.26,67.45,221.53-15.48C408.56,228.19,378.87,132.37,317.87,86Z" style="fill:#407BFF"></path><path d="M317.87,86c-27.21-20.68-76.22-21.6-107.56,4.9-34.61,29.27-36.8,82.64-71.77,109.16-35.55,27-77,13.94-81.39,80.38-3.37,51.2,36.14,51.3,69.21,57.67,59.39,11.43,168.26,67.45,221.53-15.48C408.56,228.19,378.87,132.37,317.87,86Z" style="fill:#fff;opacity:0.9"></path></g><g id="freepik--Calendar--inject-2"><path d="M401.91,312.41h-24v-1h24a16,16,0,0,0,13.73-8.36l.88.48A17,17,0,0,1,401.91,312.41Z" style="fill:#407BFF"></path><rect x="363.33" y="311.41" width="9.83" height="1" style="fill:#407BFF"></rect><path d="M401.91,308.91H121.11a10.85,10.85,0,0,1-11-12l15.17-174a13.4,13.4,0,0,1,13-12h280.8a10.86,10.86,0,0,1,11,12L415,296.91A13.4,13.4,0,0,1,401.91,308.91Z" style="fill:#407BFF"></path><path d="M396.06,305.26H122.26A9.24,9.24,0,0,1,112.94,295l13.82-158.51a3.28,3.28,0,0,1,3.19-2.94H418.32a2.65,2.65,0,0,1,2.68,2.94L407.17,295A11.41,11.41,0,0,1,396.06,305.26Z" style="fill:#fff"></path><path d="M157.16,125.66a13.32,13.32,0,0,1-13.47-14.75,16.44,16.44,0,0,1,16-14.75,13.31,13.31,0,0,1,13.46,14.75h-6a7.9,7.9,0,0,0-8-8.75,9.75,9.75,0,0,0-9.52,8.75,7.9,7.9,0,0,0,8,8.75Z" style="fill:#263238"></path><path d="M216.51,125.66A13.32,13.32,0,0,1,203,110.91a16.44,16.44,0,0,1,16-14.75,13.31,13.31,0,0,1,13.46,14.75h-6a7.9,7.9,0,0,0-8-8.75,9.75,9.75,0,0,0-9.52,8.75,7.91,7.91,0,0,0,8,8.75Z" style="fill:#263238"></path><path d="M275.86,125.66a13.32,13.32,0,0,1-13.46-14.75,16.42,16.42,0,0,1,16-14.75,13.31,13.31,0,0,1,13.46,14.75h-6a7.89,7.89,0,0,0-8-8.75,9.74,9.74,0,0,0-9.51,8.75,7.9,7.9,0,0,0,8,8.75Z" style="fill:#263238"></path><path d="M335.21,125.66a13.32,13.32,0,0,1-13.46-14.75,16.43,16.43,0,0,1,16-14.75,13.32,13.32,0,0,1,13.47,14.75h-6a7.9,7.9,0,0,0-8-8.75,9.74,9.74,0,0,0-9.51,8.75,7.9,7.9,0,0,0,8,8.75Z" style="fill:#263238"></path><path d="M394.56,125.66a13.32,13.32,0,0,1-13.46-14.75,16.43,16.43,0,0,1,16-14.75,13.32,13.32,0,0,1,13.47,14.75h-6a7.9,7.9,0,0,0-8-8.75,9.75,9.75,0,0,0-9.51,8.75,7.9,7.9,0,0,0,8,8.75Z" style="fill:#263238"></path><path d="M395.34,298.07H124.67a.44.44,0,0,1-.45-.5l13.49-154.66a.55.55,0,0,1,.54-.5H408.91a.45.45,0,0,1,.46.5L395.88,297.57A.55.55,0,0,1,395.34,298.07Zm-270.08-1H394.92l13.41-153.66H138.67Z" style="fill:#e0e0e0"></path><path d="M398,267.14H127.37a.45.45,0,0,1-.45-.5.54.54,0,0,1,.54-.5H398.12a.45.45,0,0,1,.46.5A.57.57,0,0,1,398,267.14Z" style="fill:#e0e0e0"></path><path d="M400.73,236.21H130.07a.46.46,0,0,1-.46-.5.56.56,0,0,1,.55-.5H400.82a.45.45,0,0,1,.46.5A.57.57,0,0,1,400.73,236.21Z" style="fill:#e0e0e0"></path><path d="M403.43,205.27H132.77a.45.45,0,0,1-.46-.5.57.57,0,0,1,.55-.5H403.52a.45.45,0,0,1,.45.5A.54.54,0,0,1,403.43,205.27Z" style="fill:#e0e0e0"></path><path d="M406.13,174.34H135.47a.45.45,0,0,1-.46-.5.55.55,0,0,1,.54-.5H406.22a.44.44,0,0,1,.45.5A.54.54,0,0,1,406.13,174.34Z" style="fill:#e0e0e0"></path><path d="M361.5,298.07a.44.44,0,0,1-.45-.5l13.49-154.66a.55.55,0,0,1,.54-.5.45.45,0,0,1,.46.5L362.05,297.57A.56.56,0,0,1,361.5,298.07Z" style="fill:#e0e0e0"></path><path d="M327.67,298.07a.45.45,0,0,1-.46-.5L340.7,142.91a.56.56,0,0,1,.55-.5.44.44,0,0,1,.45.5L328.21,297.57A.54.54,0,0,1,327.67,298.07Z" style="fill:#e0e0e0"></path><path d="M293.84,298.07a.45.45,0,0,1-.46-.5l13.49-154.66a.56.56,0,0,1,.55-.5.44.44,0,0,1,.45.5L294.38,297.57A.55.55,0,0,1,293.84,298.07Z" style="fill:#e0e0e0"></path><path d="M260,298.07a.45.45,0,0,1-.46-.5L273,142.91a.55.55,0,0,1,.54-.5.45.45,0,0,1,.46.5L260.55,297.57A.55.55,0,0,1,260,298.07Z" style="fill:#e0e0e0"></path><path d="M226.17,298.07a.44.44,0,0,1-.45-.5l13.49-154.66a.54.54,0,0,1,.54-.5.45.45,0,0,1,.46.5L226.72,297.57A.56.56,0,0,1,226.17,298.07Z" style="fill:#e0e0e0"></path><path d="M192.34,298.07a.45.45,0,0,1-.46-.5l13.49-154.66a.56.56,0,0,1,.55-.5.44.44,0,0,1,.45.5L192.88,297.57A.54.54,0,0,1,192.34,298.07Z" style="fill:#e0e0e0"></path><path d="M158.51,298.07a.45.45,0,0,1-.46-.5l13.49-154.66a.56.56,0,0,1,.55-.5.44.44,0,0,1,.45.5L159.05,297.57A.55.55,0,0,1,158.51,298.07Z" style="fill:#e0e0e0"></path><path d="M295.67,201.68H275a2.88,2.88,0,0,1-2.91-3.2l1.6-18.35a3.55,3.55,0,0,1,3.47-3.2h20.67a2.88,2.88,0,0,1,2.92,3.2l-1.6,18.35A3.55,3.55,0,0,1,295.67,201.68Z" style="fill:#407BFF"></path><path d="M295.67,201.68H275a2.88,2.88,0,0,1-2.91-3.2l1.6-18.35a3.55,3.55,0,0,1,3.47-3.2h20.67a2.88,2.88,0,0,1,2.92,3.2l-1.6,18.35A3.55,3.55,0,0,1,295.67,201.68Z" style="fill:#fff;opacity:0.6000000000000001"></path><polygon points="439.89 201.68 418.16 201.68 420.31 176.93 442.05 176.93 433.88 189.31 439.89 201.68" style="fill:#fff"></polygon><path d="M440.7,202.18H417.61l2.25-25.75H443l-8.49,12.88Zm-22-1h20.37l-5.77-11.87,7.84-11.88H420.77Z" style="fill:#407BFF"></path><path d="M360.44,232.61H339.77a2.88,2.88,0,0,1-2.92-3.19l1.6-18.36a3.56,3.56,0,0,1,3.48-3.19H362.6a2.89,2.89,0,0,1,2.92,3.19l-1.6,18.36A3.56,3.56,0,0,1,360.44,232.61Z" style="fill:#407BFF"></path><path d="M360.44,232.61H339.77a2.88,2.88,0,0,1-2.92-3.19l1.6-18.36a3.56,3.56,0,0,1,3.48-3.19H362.6a2.89,2.89,0,0,1,2.92,3.19l-1.6,18.36A3.56,3.56,0,0,1,360.44,232.61Z" style="fill:#fff;opacity:0.4"></path><path d="M400.05,170.75H345.17a2.88,2.88,0,0,1-2.92-3.2l1.6-18.35a3.55,3.55,0,0,1,3.47-3.2h54.89a2.89,2.89,0,0,1,2.92,3.2l-1.6,18.35A3.55,3.55,0,0,1,400.05,170.75Z" style="fill:#407BFF"></path><path d="M181.12,197.5c-8.34,0-15.29-2.95-20.22-8.6-6.33-7.27-7.28-16.29-2.49-23.55,7.11-10.75,25.64-16.48,37.83-14.89a.46.46,0,0,1,.39.56.56.56,0,0,1-.6.43c-11.89-1.55-29.91,4-36.79,14.4-5.42,8.2-2.29,16.92,2.45,22.36,6.61,7.58,15.62,8.65,22,8.2,12.19-.85,25.54-7.82,33.23-17.34,2.15-2.66,5.45-7.77,3.43-12-3-6.33-13-5.89-21.34-4.81a.46.46,0,0,1-.52-.43.55.55,0,0,1,.48-.56c5.58-.73,18.64-2.42,22.29,5.32,2.26,4.76-1.28,10.26-3.58,13.12-7.87,9.74-21.54,16.88-34,17.74C182.82,197.47,182,197.5,181.12,197.5Z" style="fill:#407BFF"></path><path d="M348,227.1h-.08a.89.89,0,0,1-.74-.5,23.16,23.16,0,0,0-4.19-6.42,1,1,0,0,1,1.47-1.48,21.87,21.87,0,0,1,3.93,5.69,89.09,89.09,0,0,1,11.13-9.68,1,1,0,0,1,1.39.16,1,1,0,0,1-.28,1.41,84.89,84.89,0,0,0-11.83,10.47A1.09,1.09,0,0,1,348,227.1Z" style="fill:#fff"></path><path d="M311.17,293.33a10.14,10.14,0,0,1-10.25-11.23,12.5,12.5,0,0,1,12.21-11.22,10.13,10.13,0,0,1,10.25,11.22A12.51,12.51,0,0,1,311.17,293.33ZM313,272.88a10.28,10.28,0,0,0-10,9.22,8.33,8.33,0,0,0,8.42,9.23,10.29,10.29,0,0,0,10-9.23A8.34,8.34,0,0,0,313,272.88Z" style="fill:#407BFF"></path><path d="M215,231.35a10.14,10.14,0,0,1-10.25-11.23A12.51,12.51,0,0,1,217,208.89a10.14,10.14,0,0,1,10.25,11.23A12.52,12.52,0,0,1,215,231.35Zm1.78-20.46a10.28,10.28,0,0,0-10,9.23,8.33,8.33,0,0,0,8.42,9.23,10.29,10.29,0,0,0,10-9.23A8.34,8.34,0,0,0,216.8,210.89Z" style="fill:#407BFF"></path></g></svg>