<svg xmlns="http://www.w3.org/2000/svg" viewBox="0 0 500 500"><g id="freepik--background-simple--inject-1"><path d="M184.82,212.3c42.25-38.86,116.41-180.9,179.32-103,52.65,65.21-13.14,159.75-56,199.8-55.77,52.1-151.22,65.57-214.62,16-27.27-21.31-43.28-58-7.43-76.14,12.09-6.1,35.4-3.38,49.49-8.3C153.61,234.41,170.68,225.31,184.82,212.3Z" style="fill:#407BFF"></path><path d="M184.82,212.3c42.25-38.86,116.41-180.9,179.32-103,52.65,65.21-13.14,159.75-56,199.8-55.77,52.1-151.22,65.57-214.62,16-27.27-21.31-43.28-58-7.43-76.14,12.09-6.1,35.4-3.38,49.49-8.3C153.61,234.41,170.68,225.31,184.82,212.3Z" style="fill:#fff;opacity:0.9"></path></g><g id="freepik--Shadow--inject-1"><ellipse id="freepik--path--inject-1" cx="250" cy="416.24" rx="193.89" ry="11.32" style="fill:#f5f5f5"></ellipse></g><g id="freepik--Surfboard--inject-1"><path d="M133.34,202c4.53.12,50.39,32.51,40.76,208.21h-44C88.82,234.49,128.83,202.1,133.34,202Z" style="fill:#407BFF"></path><path d="M134.43,202c4.42.12,49.21,32.51,39.68,208.21h-43C90.9,234.49,130,202.1,134.43,202Z" style="fill:#407BFF"></path><path d="M134.43,202c4.42.12,49.21,32.51,39.68,208.21h-43C90.9,234.49,130,202.1,134.43,202Z" style="fill:#fff;opacity:0.6000000000000001"></path><path d="M130.55,283.7l6.14,1.64a1.52,1.52,0,0,0,1.83-2l-1.88-5.57a1.52,1.52,0,0,1,1.72-2l7.44,1.41a1.52,1.52,0,0,0,1.78-1.77l-3.71-19.65a1.52,1.52,0,0,1,2.94-.75l13,40.54a1.51,1.51,0,0,1-1.84,1.93l-6.14-1.64a1.52,1.52,0,0,0-1.83,2l1.89,5.57a1.53,1.53,0,0,1-1.73,2L142.68,304a1.52,1.52,0,0,0-1.78,1.78l3.72,19.64a1.52,1.52,0,0,1-3,.75l-13-40.54A1.52,1.52,0,0,1,130.55,283.7Z" style="fill:#fff"></path></g><g id="freepik--Character--inject-1"><path d="M272.37,415.1c-17.72,0-34.33-1.15-34.58-3.2-.07-.61.82-1.06,3-1.51,3-.62,3.19-1,3.21-1.07-.48-1-12.2-1.67-17.84-2l-2.41-.14a.27.27,0,0,1-.25-.29.25.25,0,0,1,.29-.25l2.4.13c12.36.71,18.26,1.27,18.35,2.52,0,.51-.56,1-3.64,1.62-2.43.51-2.53.9-2.53.92.27,1.39,19.6,3.38,46.4,2.53a.28.28,0,0,1,.28.26.26.26,0,0,1-.26.28C280.7,415,276.5,415.1,272.37,415.1Z" style="fill:#263238"></path><path d="M273,158.86c3.36,5.15,6.67,10.38,9.93,15.6s6.51,10.49,9.78,15.44c.29.42.22.36.32.49a2.1,2.1,0,0,0,.3.36,8.21,8.21,0,0,0,1.07.91,21.84,21.84,0,0,0,3.19,1.85,62.87,62.87,0,0,0,7.95,3c5.6,1.79,11.59,3.22,17.46,4.56l.08,0a3.24,3.24,0,0,1-.64,6.4c-3.26.08-6.4-.05-9.6-.27s-6.39-.62-9.61-1.17a61.27,61.27,0,0,1-9.78-2.48,32.54,32.54,0,0,1-5.11-2.31,19.53,19.53,0,0,1-2.67-1.85,14.3,14.3,0,0,1-1.34-1.27,17.23,17.23,0,0,1-1.13-1.34c-2-2.56-3.88-5.08-5.7-7.64s-3.61-5.12-5.36-7.7c-3.52-5.17-6.89-10.38-10.14-15.72a6.5,6.5,0,0,1,11-6.94Z" style="fill:#ce7a63"></path><path d="M322.6,201.74l7.61-1.83-2.54,9.17s-6.72,1.38-8.77-3.6Z" style="fill:#ce7a63"></path><polygon points="334.51 201.89 331.79 210.08 327.67 209.08 330.21 199.91 334.51 201.89" style="fill:#ce7a63"></polygon><path d="M329.42,107.34c-6.39.17-72.39,48.28-66.26,309.27h62C390.8,155.62,335.77,107.51,329.42,107.34Z" style="fill:#407BFF"></path><path d="M329.42,107.34c-6.39.17-72.39,48.28-66.26,309.27h62C390.8,155.62,335.77,107.51,329.42,107.34Z" style="opacity:0.2"></path><path d="M305.57,127.14l-.85-.53c.74-1.18,1.48-2.32,2.2-3.41l.83.56C307,124.83,306.3,126,305.57,127.14Z" style="fill:#407BFF"></path><path d="M297.06,142.86l-.9-.43c2-4.22,4.09-8.22,6.22-11.9l.86.5C301.13,134.68,299.05,138.66,297.06,142.86Z" style="fill:#407BFF"></path><path d="M327.9,107.34c-6.25.17-70.74,48.28-64.75,309.27H323.7C387.87,155.62,334.1,107.51,327.9,107.34Z" style="fill:#407BFF"></path><path d="M347.15,139.58l-30.88,277H270.58l30.88-277.06a129.89,129.89,0,0,1,10.73-17.74,67.51,67.51,0,0,1,9.18-10.41c3.24-2.87,5.57-4,6.52-4.05s3,1.18,5.63,4.07a48.51,48.51,0,0,1,6.86,10.4A100.58,100.58,0,0,1,347.15,139.58Z" style="fill:#263238;opacity:0.2"></path><path d="M340.38,121.82,307.52,416.61H279.33l32.86-294.8a67.51,67.51,0,0,1,9.18-10.41c3.24-2.87,5.57-4,6.52-4.05s3,1.18,5.63,4.07A48.51,48.51,0,0,1,340.38,121.82Z" style="fill:#263238;opacity:0.2"></path><path d="M333.52,111.42l-34,305.19H287.35l34-305.21c3.24-2.87,5.57-4,6.52-4.05S330.92,108.53,333.52,111.42Z" style="fill:#407BFF;opacity:0.8"></path><path d="M323.65,417.13H263.08a.46.46,0,0,1-.47-.52h0a.61.61,0,0,1,.59-.52h60.57a.46.46,0,0,1,.46.52h0A.59.59,0,0,1,323.65,417.13Z" style="fill:#263238"></path><path d="M272.8,158.38c2.06,8.7,5.23,30.9-1.05,72.52l-47.63-1c-.28-6.81,3.79-38.12-1.24-70.33a7.1,7.1,0,0,1,6.26-8.19c2.57-.29,5.52-.54,8.42-.62a176.5,176.5,0,0,1,20.25.41,83.51,83.51,0,0,1,9.4,1.66A7.44,7.44,0,0,1,272.8,158.38Z" style="fill:#263238"></path><path d="M275.44,184.48c-5.51,6.15-42.87,3.34-50.18,1.49.18,5.21.19,10.19.1,14.82,7.57,2.54,43.15,4.48,49.71-1.18C275.4,194,275.49,189,275.44,184.48Z" style="fill:#407BFF"></path><path d="M257.85,123c4.2-3.86,12.17-10.44,5.46-15.63s-13.55-12.8-25.75,0c-5,0-7.4,6.28-6.73,14.6s2.37,7.66,2.18,11.86-6.76,3.39-6.76,3.39c4.89,14,30.1,17.41,32.65,2.32C261,127.17,257,123.76,257.85,123Z" style="fill:#263238"></path><path d="M229.9,136.29a8.45,8.45,0,0,1-3.57-1.07.26.26,0,0,1-.09-.35.25.25,0,0,1,.34-.09s2.81,1.61,4.49.76a2.67,2.67,0,0,0,1.26-2.3,10.92,10.92,0,0,0-.38-4.31,39.62,39.62,0,0,1-1.09-7.62.25.25,0,0,1,.24-.26.24.24,0,0,1,.26.23,39.11,39.11,0,0,0,1.08,7.54,11.41,11.41,0,0,1,.39,4.48,3.12,3.12,0,0,1-1.54,2.69A3,3,0,0,1,229.9,136.29Z" style="fill:#263238"></path><path d="M252,148.74a8.15,8.15,0,0,1-1.77-.17.25.25,0,0,1-.19-.3.24.24,0,0,1,.3-.18c.21,0,5.22,1.18,7.43-3s1.7-7.73-.17-13.65a.25.25,0,0,1,.16-.31.25.25,0,0,1,.32.16c1.9,6.05,2.41,9.69.13,14A6.66,6.66,0,0,1,252,148.74Z" style="fill:#263238"></path><path d="M239.65,128c1.25,6.54,2.48,18.49-2.09,22.75a63.93,63.93,0,0,1,17.23,11.54c1.89-4,3.36-7.8,3-11.13-7.26-1.88-7.06-7.26-5.77-12.3Z" style="fill:#ce7a63"></path><path d="M237.67,150.85a63.52,63.52,0,0,1,17.12,11.47c1.67-3.49,3-6.5,3-9.54-.4,1.9-1.37,3.44-3,6.88C250.73,156.37,243.86,153.61,237.67,150.85Z" style="fill:#fff"></path><path d="M244.7,132.46l7.33,6.43a20.56,20.56,0,0,0-.64,3.58c-2.77-.46-6.57-3.59-6.86-6.5A9.69,9.69,0,0,1,244.7,132.46Z" style="opacity:0.2"></path><path d="M238.9,118.21c.52,8.83.37,14,4.8,18.63,6.68,6.95,17.58,3.14,19.72-5.62,1.92-7.89.77-21-7.86-24.69A11.86,11.86,0,0,0,238.9,118.21Z" style="fill:#ce7a63"></path><path d="M237.26,123.34c5.59,2.74,9.17-4.32,7.72-8,2.35-1.76,11.68-1.7,9.39-5,3.86,2.24,9.78,6.71,7.68,1.23s-2-8.61-10.67-7.71-9.31,2.85-14.68,4.75S233.85,121.66,237.26,123.34Z" style="fill:#263238"></path><path d="M243.1,121.3c0,1.53.76,6.45,4,6s10.28.48,11.49,1.71c2.64-.87,5.58-1.34,5.6.11s4.8,14-12.42,12S240.73,122,240.73,122Z" style="fill:#263238"></path><path d="M258.84,132.81a.21.21,0,0,0,.15-.23.21.21,0,0,0-.24-.18,5.81,5.81,0,0,1-4.95-1.55.21.21,0,0,0-.29,0,.21.21,0,0,0,0,.3,6.13,6.13,0,0,0,5.32,1.68Z" style="fill:#ce7a63"></path><path d="M234.89,127.85a8.61,8.61,0,0,0,5.22,3.82c2.87.69,2.48-1.45,1.56-4.1-.84-2.38-1.67-6.06-4.49-5.57S233.46,125.5,234.89,127.85Z" style="fill:#ce7a63"></path><path d="M270.17,232.09s4.08,54.22,3.34,81.71c-.77,28.58-7.07,100.69-7.07,100.69l-7.62.15s-6.34-62.52-4.49-90.76c1.2-18.47-19.17-92.33-19.17-92.33Z" style="fill:#ce7a63"></path><path d="M283.37,415.34c-10.36-.7-14.21-6-16.63-7.78l-8.37-.87c0,4.54-.95,5.44-1.67,8.52-.52,2.19.44,3.33,2,3.33,2.79,0,3.74-.59,6.87-.59,2.91,0,11.4.64,15.43.59S285.06,415.45,283.37,415.34Z" style="fill:#ce7a63"></path><path d="M258.05,232s-13.65,54.31-18.56,81.8c-5.1,28.58-16.33,100.69-16.33,100.69l-7.64.15s-2.87-62.52,3.26-90.76c4-18.47,6.08-92.33,6.08-92.33Z" style="fill:#ce7a63"></path><path d="M231.52,415.19c-4.69-.49-7.7-4.94-8.16-8.09h-7.57c-.41,4.48-1,3.86-1.37,6.94-.24,2.19.17,3.24,1,3.64,1.53.72,3.74.87,6.79.84s3.27-.24,7.29-.28S232.82,415.33,231.52,415.19Z" style="fill:#ce7a63"></path><path d="M225,410.19h-9.95a1.17,1.17,0,0,1-1.18-1.22l.14-4.1a1.28,1.28,0,0,1,1.28-1.22h9.94a1.18,1.18,0,0,1,1.19,1.22l-.14,4.1A1.29,1.29,0,0,1,225,410.19Z" style="fill:#263238"></path><path d="M271.75,230.9s2.33,49.24,1.81,70.13c-5.72-.85-17.88,1.16-21.1,4.23-3.5-7.36-16.18-75.09-16.18-75.09Z" style="fill:#263238"></path><path d="M251.62,265.36c-.77-4.05-4.29.24-7.44,5.13,2,9.75,4,19.26,5.7,26C253.88,286,252.8,271.63,251.62,265.36Z" style="opacity:0.2"></path><path d="M232.65,160.1c-.55-4.09-4.25-.9-9.14,2.25,0,.21-.09.41-.14.63,1,7.09,1.53,14.09,1.8,20.76C230.78,178.27,233.92,169.47,232.65,160.1Z" style="opacity:0.2"></path><path d="M259.51,230.65s-13,63.2-18.33,74.41c-4.46-3.24-14.88-4.75-19.7-4.1-.56-5.27.66-48.85,2.64-71C235.49,229.92,259.51,230.65,259.51,230.65Z" style="fill:#263238"></path><path d="M252.28,121c0,.72.37,1.31.84,1.32s.85-.56.86-1.28-.38-1.31-.85-1.32S252.28,120.23,252.28,121Z" style="fill:#263238"></path><path d="M260.39,121.12c0,.72.38,1.31.85,1.32s.85-.57.85-1.29-.37-1.3-.84-1.31S260.4,120.4,260.39,121.12Z" style="fill:#263238"></path><path d="M257.81,121.42a26.19,26.19,0,0,0,3.41,6.21c-1.27,1.16-3.43.58-3.43.58Z" style="fill:#ba4d3c"></path><path d="M249.89,118.28a.41.41,0,0,0,.29-.16,3.29,3.29,0,0,1,2.7-1.35.41.41,0,0,0,.45-.38.43.43,0,0,0-.39-.46,4.12,4.12,0,0,0-3.44,1.67.43.43,0,0,0,.08.59A.44.44,0,0,0,249.89,118.28Z" style="fill:#263238"></path><path d="M265,119.1a.33.33,0,0,0,.13,0,.41.41,0,0,0,.2-.55,4.28,4.28,0,0,0-3-2.44.41.41,0,0,0-.48.35.43.43,0,0,0,.37.48,3.45,3.45,0,0,1,2.37,2A.42.42,0,0,0,265,119.1Z" style="fill:#263238"></path><path d="M234.25,163.39c-2.84,5.08-5.73,10.37-8.37,15.57-1.31,2.61-2.58,5.23-3.69,7.81-.56,1.28-1,2.57-1.47,3.79a20.73,20.73,0,0,0-.9,3.24,16.57,16.57,0,0,0-.06,3.39c.07,1.31.23,2.71.42,4.12.39,2.83.87,5.75,1.44,8.66,1.09,5.83,2.4,11.76,3.6,17.64v.06a3.24,3.24,0,0,1-6.1,2.05,157.16,157.16,0,0,1-7-17.25c-1-3-1.93-6-2.68-9.12-.37-1.57-.72-3.17-1-4.88a25.83,25.83,0,0,1-.36-5.71,31.22,31.22,0,0,1,1-5.66c.44-1.7,1-3.28,1.52-4.83,1.09-3.09,2.33-6,3.65-8.89a167.86,167.86,0,0,1,8.79-16.61,6.5,6.5,0,0,1,11.25,6.52Z" style="fill:#ce7a63"></path><path d="M223,225.9l7.79-.78-3.77,8.75s-6.84.45-8.19-4.77Z" style="fill:#ce7a63"></path><polygon points="234.82 227.67 231.01 235.42 227.06 233.87 230.83 225.12 234.82 227.67" style="fill:#ce7a63"></polygon></g></svg>