<svg xmlns="http://www.w3.org/2000/svg" viewBox="0 0 500 500"><g id="freepik--background-simple--inject-143"><path d="M239.69,81.33c106.14,1.14,97.7,105.3,121.7,145.36s63.26,36.86,54.48,99.41S169.32,433,110.81,329.3,139.08,80.25,239.69,81.33Z" style="fill:#407BFF"></path><path d="M239.69,81.33c106.14,1.14,97.7,105.3,121.7,145.36s63.26,36.86,54.48,99.41S169.32,433,110.81,329.3,139.08,80.25,239.69,81.33Z" style="fill:#fff;opacity:0.9"></path></g><g id="freepik--Shadow--inject-143"><ellipse id="freepik--path--inject-143" cx="250" cy="416.24" rx="193.89" ry="11.32" style="fill:#f5f5f5"></ellipse></g><g id="freepik--Birds--inject-143"><path d="M135.16,124.64s.81-9.13,3-10.56,15.29-4.89,15.29-4.89-5.2,14.08-8.36,15.7S135.16,124.64,135.16,124.64Z" style="fill:#407BFF"></path><path d="M153.4,109.19h0c-.15.43-5.24,14.1-8.35,15.69-1.67.86-4.34.73-6.48.43a28.81,28.81,0,0,1-3.4-.69s.82-9.13,3-10.55,14.07-4.57,15.19-4.87h.09Z" style="fill:#fff;opacity:0.5"></path><path d="M153.39,109.2c-.15.43-5.24,14.1-8.35,15.69-1.67.86-4.34.73-6.48.43-3-2,3.35-4.21,4.29-4.93s.36-1.42.05-1.93.82-1.73,2.14-2.24,1.74-1.53,1.43-3.06,6-3.66,6.84-4h.08Z" style="opacity:0.2;isolation:isolate"></path><path d="M128.46,119.15c3-.09,9.76,3.25,12,3.42s13.35-7.49,15.74-8.76,23.32-4.07,23.32-4.07S165.62,124,156.2,124.37c0,0,7,1.94,9,1.43,8.1-2.07,19.63-1.91,19.63-1.91l-12.91,4.2,11.26,1.45s-5.22,1.3-15.92.61a79.84,79.84,0,0,1-12.46,3.44c-9.4,2-15.16-2-17-3.49-4.07-3.29-17.52-7-17.52-7l4.59-1.63A4,4,0,0,1,128.46,119.15Z" style="fill:#407BFF"></path><path d="M171.94,128.09l11.25,1.45s-5.21,1.3-15.91.61a72.92,72.92,0,0,1-10,2.9c-.76.18-1.58.35-2.44.54-9.39,2-15.16-2-17-3.49-1.65-1.33-4.84-2.74-8.05-3.94-.51-.2-1-.38-1.52-.56h0l-1.14-.39c-.84-.3-1.66-.56-2.41-.8-2.53-.82-4.39-1.34-4.39-1.34l4.59-1.63a4,4,0,0,1,3.59-2.29c2-.05,5.55,1.36,8.42,2.39a17.55,17.55,0,0,0,3.58,1c2.24.17,13.35-7.49,15.74-8.76,1.16-.61,6.63-1.58,12-2.42,5.73-.9,11.33-1.65,11.33-1.65s-9.63,9.85-18.29,13.39a16.33,16.33,0,0,1-4.49,1.2h0l-.53,0,.1,0c.89.24,7,1.87,8.91,1.39,1.44-.36,3-.66,4.55-.89h0a105.39,105.39,0,0,1,15.06-1Z" style="fill:#fff;opacity:0.6000000000000001"></path><path d="M136.88,121.54c-1.44,0-3.32.17-4,.89-.89.95-1.7,2.95-3.14,3.73-.51-.2-1-.38-1.52-.56h0l-1.14-.39c-.84-.3-1.66-.56-2.41-.8a9.53,9.53,0,0,1,.2-3,4,4,0,0,1,3.59-2.29C130.42,119.1,134,120.51,136.88,121.54Z" style="opacity:0.2;isolation:isolate"></path><path d="M179.52,109.74s-9.63,9.85-18.29,13.39a28.73,28.73,0,0,1-4.49,1.2h0l-.43.07c-7,1.09-7.82,0-7.82,0s2.37-.69,2.6-.69-1-.76.53-1.35,1.3-1.32,1.3-1.32,4.21-1.46,4.36-1.91-.53-1.22,1.38-1.61.07-1.37,3-2.44,2.21-1.68,2.21-1.68c2.6-.69,3.79-1.41,4.28-2C173.92,110.49,179.52,109.74,179.52,109.74Z" style="opacity:0.2;isolation:isolate"></path><path d="M171.94,128.09l11.25,1.45s-5.21,1.3-15.91.61a72.92,72.92,0,0,1-10,2.9c-1.3-.69,2.38-1.84,4-2.67,2.06-1.07,1.76-.84,1-1.37s.08-.69,2.44-1.23,1.83-1.07,3.28-2.17a6,6,0,0,1,1.8-.71h0a105.39,105.39,0,0,1,15.06-1Z" style="opacity:0.2;isolation:isolate"></path><polygon points="124.87 121.44 126.17 122.38 125.39 124.64 120.28 123.07 124.87 121.44" style="fill:#407BFF"></polygon><path d="M363.3,127.32s.31-3.56,1.15-4.12a47.32,47.32,0,0,1,5.95-1.9s-2,5.48-3.26,6.11S363.3,127.32,363.3,127.32Z" style="fill:#407BFF"></path><path d="M370.4,121.3h0c-.06.17-2,5.49-3.26,6.11a4.59,4.59,0,0,1-2.52.17,10.37,10.37,0,0,1-1.33-.27s.32-3.55,1.16-4.11a43.76,43.76,0,0,1,5.92-1.89h0Z" style="fill:#fff;opacity:0.5"></path><path d="M370.4,121.3c-.06.17-2,5.49-3.26,6.11a4.59,4.59,0,0,1-2.52.17c-1.17-.78,1.3-1.64,1.67-1.92s.14-.55,0-.75.32-.67.83-.87a.91.91,0,0,0,.56-1.19c-.11-.56,2.35-1.43,2.67-1.54h0Z" style="opacity:0.2;isolation:isolate"></path><path d="M360.69,125.18c1.16,0,3.8,1.27,4.67,1.33s5.2-2.92,6.13-3.41,9.08-1.59,9.08-1.59-5.41,5.54-9.08,5.7a12.82,12.82,0,0,0,3.51.56,35.76,35.76,0,0,1,7.65-.75l-5,1.64,4.38.57a22.68,22.68,0,0,1-6.19.23A31.37,31.37,0,0,1,371,130.8a7.72,7.72,0,0,1-6.63-1.35c-1.58-1.29-6.82-2.74-6.82-2.74l1.79-.64A1.56,1.56,0,0,1,360.69,125.18Z" style="fill:#407BFF"></path><path d="M377.62,128.66l4.38.57a22.73,22.73,0,0,1-6.2.23,28.35,28.35,0,0,1-3.9,1.13l-.95.21a7.72,7.72,0,0,1-6.63-1.35,12.46,12.46,0,0,0-3.13-1.54l-.6-.22h0l-.44-.15c-.33-.12-.65-.22-.94-.31-1-.32-1.71-.52-1.71-.52l1.79-.64a1.56,1.56,0,0,1,1.4-.89,12.6,12.6,0,0,1,3.28.93,6.47,6.47,0,0,0,1.39.4c.87.07,5.2-2.92,6.13-3.41a28.89,28.89,0,0,1,4.67-.94c2.23-.36,4.41-.65,4.41-.65s-3.75,3.84-7.12,5.22a6.72,6.72,0,0,1-1.75.47h-.17a12.25,12.25,0,0,0,3.47.55,15.84,15.84,0,0,1,1.77-.35h0a41.59,41.59,0,0,1,5.87-.39Z" style="fill:#fff;opacity:0.6000000000000001"></path><path d="M364,126.11a2.55,2.55,0,0,0-1.56.35c-.35.37-.66,1.15-1.22,1.45l-.6-.22h0l-.44-.15c-.33-.12-.65-.22-.94-.31a3.82,3.82,0,0,1,.08-1.16,1.56,1.56,0,0,1,1.4-.89A12.6,12.6,0,0,1,364,126.11Z" style="opacity:0.2;isolation:isolate"></path><path d="M380.57,121.51s-3.75,3.84-7.12,5.22a12.58,12.58,0,0,1-1.75.47h0l-.17,0c-2.73.43-3,0-3,0s.93-.27,1-.27-.39-.3.2-.52.51-.52.51-.52a8.13,8.13,0,0,0,1.7-.74c.06-.18-.21-.48.53-.63s0-.53,1.19-1,.87-.65.87-.65a3.21,3.21,0,0,0,1.66-.79C378.39,121.8,380.57,121.51,380.57,121.51Z" style="opacity:0.2;isolation:isolate"></path><path d="M377.62,128.66l4.38.57a22.73,22.73,0,0,1-6.2.23,28.35,28.35,0,0,1-3.9,1.13c-.5-.27.93-.71,1.55-1,.81-.41.69-.32.39-.53s0-.27,1-.48.72-.42,1.28-.85a2.36,2.36,0,0,1,.7-.27h0a41.59,41.59,0,0,1,5.87-.39Z" style="opacity:0.2;isolation:isolate"></path><polygon points="359.29 126.07 359.79 126.44 359.49 127.32 357.5 126.71 359.29 126.07" style="fill:#407BFF"></polygon><path d="M226.67,166.35c2.11-1.32,10.8,8,14.92,9.22a14.55,14.55,0,0,1-9.05.12C228,174.1,224.43,167.74,226.67,166.35Z" style="fill:#407BFF"></path><path d="M241.59,175.57a14.64,14.64,0,0,1-9.05.12c-4.53-1.59-8.11-7.95-5.87-9.34.5-.31,1.37,0,2.45.6C232.63,169,238.44,174.67,241.59,175.57Z" style="fill:#fff;opacity:0.4"></path><path d="M241.59,175.57s-3.71.4-4.23-.16a2.53,2.53,0,0,0-2.08-.81c-1,0-1.43-.52-1.25-1.57s-1.29-.48-2.17-.83.1-.66.12-1.39-1.76-.82-1.86-1.4.59-.45.21-1.06-1.66-.82-1.21-1.4C232.63,169,238.44,174.67,241.59,175.57Z" style="opacity:0.2;isolation:isolate"></path><path d="M219.82,164.54c2.13-.46,7.43,1,9.06.83,1.47-.16,11.54-.84,11.54-.84s5.27.45,6.66-.2c5.53-2.58,13.82-4,13.82-4l-8.69,4.77,8.27-.49s-3.56,1.64-11.33,2.6a58.2,58.2,0,0,1-8.47,4.16c-6.47,2.7-11.14.63-12.68-.19-3.36-1.81-13.52-2.67-13.52-2.67l3.07-1.79A3,3,0,0,1,219.82,164.54Z" style="fill:#407BFF"></path><path d="M252.21,165.06l8.27-.49s-3.57,1.64-11.34,2.6c0,0-.13.09-.41.25a61.54,61.54,0,0,1-6.38,3.18c-.52.24-1.08.47-1.67.72a16.49,16.49,0,0,1-6.49,1.35,13.43,13.43,0,0,1-6.19-1.54,24.36,24.36,0,0,0-6.31-1.74l-1.17-.19h0l-.86-.13-1.84-.24c-1.93-.24-3.33-.36-3.33-.36l3.06-1.8a3,3,0,0,1,2.27-2.13c1.4-.3,4.17.22,6.36.57a12.56,12.56,0,0,0,2.71.26c1.63-.18,11.66-.87,11.53-.84h.08c.67.05,5.3.39,6.58-.21,1-.45,2.05-.88,3.14-1.26h0a77.52,77.52,0,0,1,10.67-2.76Z" style="fill:#fff;opacity:0.6000000000000001"></path><path d="M226.18,165.12c-1,.2-2.36.57-2.74,1.18-.51.8-.82,2.35-1.75,3.1l-1.17-.2h0l-.87-.12c-.64-.1-1.27-.18-1.84-.25a6.83,6.83,0,0,1-.26-2.16,2.93,2.93,0,0,1,2.26-2.12C221.21,164.24,224,164.77,226.18,165.12Z" style="opacity:0.2;isolation:isolate"></path><path d="M252.21,165.06l8.27-.49s-3.56,1.64-11.33,2.6a54.32,54.32,0,0,1-6.79,3.44c-1-.32,1.46-1.64,2.49-2.45,1.33-1,1.15-.85.53-1.13s0-.5,1.58-1.21,1.17-1,2.06-2a4.65,4.65,0,0,1,1.2-.75h0a76.71,76.71,0,0,1,10.67-2.77Z" style="opacity:0.2;isolation:isolate"></path><polygon points="217.55 166.67 218.61 167.17 218.36 168.9 214.48 168.47 217.55 166.67" style="fill:#407BFF"></polygon><path d="M248.73,167.42a61.54,61.54,0,0,1-6.38,3.18c-.52.24-1.08.47-1.67.72a16.49,16.49,0,0,1-6.49,1.35,16.11,16.11,0,0,1-3-4.21s.59-1.78,3.69-2.89C237,164.85,244.08,166.32,248.73,167.42Z" style="opacity:0.30000000000000004;isolation:isolate"></path><path d="M231.3,165.44c3.87-2,26,6.82,35.07,7.22a51.42,51.42,0,0,1-18.85,2.26C237.36,174.12,227.21,167.58,231.3,165.44Z" style="fill:#407BFF"></path><path d="M266.38,172.67a51.63,51.63,0,0,1-18.86,2.25c-10.15-.79-20.31-7.34-16.22-9.47.91-.48,2.85-.35,5.39.13C244.89,167.13,259.43,172.36,266.38,172.67Z" style="fill:#fff;opacity:0.6000000000000001"></path><path d="M266.38,172.67s-7.59,1.33-8.9.8a9.15,9.15,0,0,0-4.69-.46c-2.17.2-3.23-.27-3.29-1.52s-2.9-.26-4.88-.46-.07-.79-.33-1.64-4-.54-4.48-1.2,1.05-.66,0-1.27-3.83-.57-3.12-1.34C244.89,167.13,259.43,172.36,266.38,172.67Z" style="opacity:0.2;isolation:isolate"></path></g><g id="freepik--splash-2--inject-143"><path d="M70.47,418.35S65.33,404.73,78,405.21s15,6.61,11.08-6.1S74,354,86.3,361.83s17.4,16.3,15.82-8.89S117.55,310.58,127,315s-10.28,10.45-9.89,19.51,1.79,18.88,19.59,2.66,56.6-37.33,71.32-25.16-17.81,1.47-16.38,18.1,33.54,9.77,55.46,7.06S311,338.23,288.85,350s-25.76,16.06-4.57,15.1,60.25.65,43.77,15-12.3,24.8,11.83,19.66,61.71,6.37,52.61,18.62Z" style="fill:#407BFF"></path><path d="M392.49,418.35h-322S65.33,404.73,78,405.21s15,6.61,11.08-6.1S74,354,86.3,361.83s17.4,16.3,15.82-8.89S117.55,310.58,127,315s-10.28,10.45-9.89,19.51,1.79,18.88,19.59,2.66,56.6-37.33,71.32-25.16-17.81,1.47-16.38,18.1,33.54,9.77,55.46,7.06S311,338.23,288.85,350s-25.76,16.06-4.57,15.1,60.25.65,43.77,15-12.3,24.8,11.83,19.66S401.59,406.1,392.49,418.35Z" style="fill:#fff;opacity:0.4"></path><path d="M326.87,418.35H102.52s-11.48-17.45,0-12.49,14.63,7.42,11.86-12.4-4-38.44,5.11-36.45-3.52,13.86,6.76,14.25S138.3,350,151.86,338.87s35.52-24.26,28.3-11.76S154,361.52,171,363.42s40.35-18.2,46.68-12.1S181.49,367,196,375.47s70.53-7.46,80.5-2.27-23.5,10.7-22,20,28.69,11.25,47.14,11.86S332.86,410.45,326.87,418.35Z" style="opacity:0.2;isolation:isolate"></path></g><g id="freepik--Character--inject-143"><path d="M243,272.26s-8.58,9.39-11.51,12.52-6.34,5.13-12.74,5c-5.18-.13-18.95-1.16-18.95-1.16v4.57s22.6,3.78,28.71,2.65c4.4-.82,20.23-14.55,20.23-14.55Z" style="fill:#ebb376"></path><path d="M243,272.26s-8.58,9.39-11.51,12.52-6.34,5.13-12.74,5c-5.18-.13-18.95-1.16-18.95-1.16v4.57s22.6,3.78,28.71,2.65c4.4-.82,20.23-14.55,20.23-14.55Z" style="opacity:0.2;isolation:isolate"></path><path d="M261.54,301.34c-2.48-.21-12.05,8.17-12.05,8.17-19.27,2.62-40.43,10.94-41.83,18.86-1.34,7.58,9.5,21.48,21.1,57.33,1,4.24-4.17,7.29-8.42,8.47s-1.74,3.67,3.06,3.47l11.87-.5c3.09-.13,1.52-2.47.91-7.42-1.92-33.57-9.49-53.76-9.49-53.76,25.89,0,41.08-1.15,43.05-15.77C271.73,305.36,266.19,301.75,261.54,301.34Z" style="fill:#ebb376"></path><path d="M261.54,301.34c-2.48-.21-12.05,8.17-12.05,8.17-19.27,2.62-40.43,10.94-41.83,18.86-1.34,7.58,9.5,21.48,21.1,57.33,1,4.24-4.17,7.29-8.42,8.47s-1.74,3.67,3.06,3.47l11.87-.5c3.09-.13,1.52-2.47.91-7.42-1.92-33.57-9.49-53.76-9.49-53.76,25.89,0,41.08-1.15,43.05-15.77C271.73,305.36,266.19,301.75,261.54,301.34Z" style="opacity:0.2;isolation:isolate"></path><path d="M246.65,272.18s-2.11-.22-1.65-2.74,11.26-7.3,20.44-7.18,10.3,4.84,7.52,7.35S249.27,275,246.65,272.18Z" style="fill:#407BFF"></path><path d="M246.65,272.18s-2.11-.22-1.65-2.74,11.26-7.3,20.44-7.18,10.3,4.84,7.52,7.35S249.27,275,246.65,272.18Z" style="fill:#fff;opacity:0.4"></path><path d="M231.53,252.08s-3.12-6.81,2.67-11.5,7.31.18,13.59-2.26,4-7.65,10.33-5.76,6.71,6.76,11.36,2.44,8.2-5.32,12.3-1.45,5.76,4.88,8.42,2.11,7.32,1,7.32,1-3-.56-3.53,1.44-.79,8-4.67,8c0,0,.55,1.88,2.33-.11,0,0,2.21,8.07-5.66,7.8s-6.87,10.14-14.85,8.48c0,0,3.66,2,6.21-1.15a5.77,5.77,0,0,1-6.76,3.7c-5.21-1-14.22-3.92-17.25-1.57S229.59,270.94,231.53,252.08Z" style="fill:#263238"></path><path d="M256.3,303.33s-7.76-17-16.72-27.33c0,0,2.8-4.92,13.8-7.69s20.63,3.1,20.63,3.1l9.91,26.89S267.35,302.94,256.3,303.33Z" style="fill:#263238"></path><path d="M253.39,276.6s-4,.57-4.72-2.41c0,0,.92-.84,0-2.78A10.21,10.21,0,0,0,247,269a24.31,24.31,0,0,0-2.53-2.38l5.16-6.6a14.81,14.81,0,0,0,1.81,4,7.65,7.65,0,0,0,6.13,3.94S257.94,271.43,253.39,276.6Z" style="fill:#ebb376"></path><path d="M251.42,263.94a36.05,36.05,0,0,1-2.72,7.47A10.21,10.21,0,0,0,247,269a24.31,24.31,0,0,0-2.53-2.38l5.16-6.6A14.81,14.81,0,0,0,251.42,263.94Z" style="opacity:0.2;isolation:isolate"></path><path d="M241,244.57c-7.36.62-9.4,4.76-9.3,12.39.13,9.54,2.8,16.1,11.83,13.3C255.83,266.45,253.25,243.54,241,244.57Z" style="fill:#ebb376"></path><path d="M236.45,256.15a15.45,15.45,0,0,1-1.88,3.24,2,2,0,0,0,2,.66Z" style="fill:#d58745"></path><path d="M240.91,255.17c0,.61.39,1.08.8,1.05s.7-.53.66-1.14-.39-1.08-.8-1.05S240.87,254.56,240.91,255.17Z" style="fill:#263238"></path><path d="M241.74,254.05l-1.34-.44S241.12,254.68,241.74,254.05Z" style="fill:#263238"></path><path d="M233.37,255.5c0,.61.39,1.08.8,1.05s.7-.53.66-1.14-.39-1.07-.8-1S233.33,254.9,233.37,255.5Z" style="fill:#263238"></path><path d="M234.2,254.38l-1.34-.44S233.58,255,234.2,254.38Z" style="fill:#263238"></path><path d="M243.84,251.29a.35.35,0,0,1-.26-.12,3.53,3.53,0,0,0-3-.74.36.36,0,0,1-.43-.27.37.37,0,0,1,.28-.44,4.16,4.16,0,0,1,3.62.95.35.35,0,0,1,0,.51A.36.36,0,0,1,243.84,251.29Z" style="fill:#263238"></path><path d="M232.29,251.43a.35.35,0,0,1-.28-.13.36.36,0,0,1,.06-.51,3.75,3.75,0,0,1,3.2-.92.36.36,0,0,1,.26.45.37.37,0,0,1-.45.25h0a3.08,3.08,0,0,0-2.56.79A.39.39,0,0,1,232.29,251.43Z" style="fill:#263238"></path><path d="M237.9,262.86a18.43,18.43,0,0,1,1.07,2.48l.47-.08c2.13-.4,3-1.28,3.29-2.15a2.88,2.88,0,0,0,.1-1.31,2.82,2.82,0,0,0-.2-.73,10.13,10.13,0,0,1-4,1.64C238.18,262.82,237.9,262.86,237.9,262.86Z" style="fill:#263238"></path><path d="M238.62,262.71l.34.73c2-.38,3.35-.92,3.87-1.64a2.82,2.82,0,0,0-.2-.73A10.13,10.13,0,0,1,238.62,262.71Z" style="fill:#fff"></path><path d="M239.44,265.26c2.13-.4,3-1.28,3.29-2.15a7.16,7.16,0,0,0-2.28.91A2.68,2.68,0,0,0,239.44,265.26Z" style="fill:#de5753"></path><path d="M250.12,256.3s-4-5.76-3.82-10.47c0,0-15.09-4.73-14.57,10.14,0,0-2.53-13,10.1-14.39S256,258.74,249.9,264.8C249.9,264.8,252.57,259.9,250.12,256.3Z" style="fill:#263238"></path><path d="M249.05,258a3.24,3.24,0,0,1,3.23-3.24c2.3.06,3.78,4.65-1.8,6.25C249.68,261.19,249.16,260.44,249.05,258Z" style="fill:#ebb376"></path><path d="M230.34,253.44s1.44-.94,4.61-.59h0a3.39,3.39,0,0,1,2.68-.32,15.33,15.33,0,0,1,5.62-.22l6.09.82.15.61-6.05-.13c-.15,1.51-.92,4-2.94,4-2.68.07-3.14-2.61-3.24-3.9-.68-.5-1.73-.35-1.82.18.05,1.15-.07,3.84-2.78,4.32S230.34,253.44,230.34,253.44Z" style="fill:#263238"></path><path d="M230.34,253.38s1.44-.94,4.61-.59h0a3.39,3.39,0,0,1,2.68-.32,15.33,15.33,0,0,1,5.62-.22l6.09.82.15.61-6.05-.13c-.15,1.51-.92,4-2.94,4-2.68.08-3.14-2.61-3.24-3.9-.68-.5-1.73-.35-1.82.18.05,1.15-.07,3.84-2.78,4.32S230.34,253.38,230.34,253.38Z" style="opacity:0.2;isolation:isolate"></path><g style="opacity:0.30000000000000004"><path d="M231.38,253.57l2.1,3.9s-1.46.91-2.19-.27a8,8,0,0,1-.68-3.45A2.4,2.4,0,0,1,231.38,253.57Z" style="fill:#fff"></path><path d="M231.74,253.45l2.1,3.94s.66-.39.6-.66l-1.76-3.37S232,253.41,231.74,253.45Z" style="fill:#fff"></path><path d="M238.78,252.93l2.1,3.9s-1.47.9-2.19-.27a8.06,8.06,0,0,1-.68-3.45A2.15,2.15,0,0,1,238.78,252.93Z" style="fill:#fff"></path><path d="M239.14,252.8l2.09,3.94s.66-.38.61-.66l-1.76-3.37Z" style="fill:#fff"></path></g><path d="M256.3,303.33s-9.09,24.65,7.81,28.86,28.49-4.38,19.81-33.89Z" style="fill:#263238"></path><path d="M262.58,303.33l.06.28c-2.16.8-5.11,1.59-6.67.7-2.65-1.5-3.78-7.38-3.78-7.38S240,280.77,239.14,276.65s6.4-5.74,6.4-5.74,2.55,4.43,3.51,5.09a4.48,4.48,0,0,0,1.92.42,1.81,1.81,0,0,0,0,.23C251.48,278.5,262.58,303.33,262.58,303.33Z" style="fill:#407BFF"></path><path d="M284.66,301c-1,1.47-11.86,3.64-18.13,2.39-2.83-3.88-12.41-26.7-12.41-26.7a7.34,7.34,0,0,0-.1-1c1.41-2.11,5-7,9.36-8.05a11.78,11.78,0,0,1,9.76,2.28s-1,9.38,1.77,14.81a9.61,9.61,0,0,0,7.87,5.51S285.77,299.27,284.66,301Z" style="fill:#407BFF"></path><path d="M262.58,303.33l.06.28c-2.16.8-5.11,1.59-6.67.7-2.65-1.5-3.78-7.38-3.78-7.38S240,280.77,239.14,276.65s6.4-5.74,6.4-5.74,2.55,4.43,3.51,5.09a4.48,4.48,0,0,0,1.92.42,1.81,1.81,0,0,0,0,.23C251.48,278.5,262.58,303.33,262.58,303.33Z" style="fill:#fff;opacity:0.2"></path><path d="M284.66,301c-1,1.47-11.86,3.64-18.13,2.39-2.83-3.88-12.41-26.7-12.41-26.7a7.34,7.34,0,0,0-.1-1c1.41-2.11,5-7,9.36-8.05a11.78,11.78,0,0,1,9.76,2.28s-1,9.38,1.77,14.81a9.61,9.61,0,0,0,7.87,5.51S285.77,299.27,284.66,301Z" style="fill:#fff;opacity:0.2"></path><path d="M254.12,276.65a41.28,41.28,0,0,1-.78-6.24c0-2.1,4.57-6.69,6-7.2s4.38.42,4.77,4.75C264.11,268,263.47,275.31,254.12,276.65Z" style="fill:#407BFF"></path><path d="M251,276.65a11.6,11.6,0,0,1-3.36-4.2c-1.11-2.54-3.18-4.75-3.2-1S245.14,278.72,251,276.65Z" style="fill:#407BFF"></path><path d="M254.12,276.65a41.28,41.28,0,0,1-.78-6.24c0-2.1,4.57-6.69,6-7.2s4.38.42,4.77,4.75C264.11,268,263.47,275.31,254.12,276.65Z" style="fill:#fff;opacity:0.4"></path><path d="M251,276.65a11.6,11.6,0,0,1-3.36-4.2c-1.11-2.54-3.18-4.75-3.2-1S245.14,278.72,251,276.65Z" style="fill:#fff;opacity:0.4"></path><path d="M251,283.59l8.08-1.41.83,2.08-7.56,1.23Z" style="fill:#407BFF"></path><polygon points="255.66 292.74 262.63 291.41 263.58 293.65 257.01 294.9 255.66 292.74" style="fill:#407BFF"></polygon><polygon points="283.17 291.41 279.7 292.49 280.7 294.9 284.27 293.73 283.17 291.41" style="fill:#407BFF"></polygon><polygon points="252.19 298.3 253.34 298.3 253.86 300.38 253.03 300.38 252.19 298.3" style="fill:#407BFF"></polygon><path d="M232.29,244.79h0a.26.26,0,0,1-.25-.25c0-.08.09-7.23,6.57-7.54l1.55-.06c5.3-.23,8.22-.35,10.64-3.69l.51-.71c2.41-3.37,4.16-5.8,10.54-3.13s9.66-1.47,9.69-1.51a.25.25,0,0,1,.39.31s-3.55,4.47-10.27,1.66c-6-2.52-7.5-.45-9.94,3l-.51.7c-2.57,3.54-5.76,3.67-11,3.9l-1.55.06c-6,.29-6.08,6.76-6.09,7A.25.25,0,0,1,232.29,244.79Z" style="fill:#263238"></path><path d="M276.2,261.19a31.66,31.66,0,0,1-6.89-1.27c-4.05-1-8.23-2.1-10.74-.86a.25.25,0,0,1-.22-.45c2.67-1.32,6.95-.23,11.08.82,3.5.89,6.81,1.74,8.6.94a4.89,4.89,0,0,0,2.62-2.92c.67-1.5,1.31-2.91,4.71-2.61s7.05-.8,8.6-2.71a2.88,2.88,0,0,0,.65-2.74.25.25,0,0,1,.16-.32.26.26,0,0,1,.32.17,3.38,3.38,0,0,1-.74,3.21c-1.68,2.06-5.31,3.22-9,2.89-3.05-.27-3.57.87-4.22,2.32a5.37,5.37,0,0,1-2.87,3.17A5.19,5.19,0,0,1,276.2,261.19Z" style="fill:#263238"></path><path d="M253.86,236.91a.25.25,0,0,1-.18-.08.24.24,0,0,1,0-.35c4.53-4.37,7.1-4.34,10-2.81,2.71,1.42,6.77.28,9.65-2.71s8.1-.55,11.28.85l.39.17c2.77,1.21,6.21-1.71,6.24-1.74a.25.25,0,0,1,.36,0,.24.24,0,0,1,0,.35c-.15.13-3.71,3.15-6.77,1.82l-.39-.17c-3.06-1.35-8.19-3.6-10.72-1-3.08,3.2-7.29,4.36-10.24,2.81-2.77-1.45-5.09-1.45-9.43,2.73A.23.23,0,0,1,253.86,236.91Z" style="fill:#263238"></path><path d="M177.38,308.15s11.64-21.49,14-22.61,8-3.29,13.3-1.7,10,7.57,10,7.57l-1.33,6.89L190.35,312Z" style="fill:#263238"></path><path d="M177.38,308.15s11.64-21.49,14-22.61,8-3.29,13.3-1.7,10,7.57,10,7.57l-1.33,6.89L190.35,312Z" style="fill:#fff;opacity:0.2"></path><path d="M211.91,288.48c-4.55.56-8.1,6.41-8.1,6.41l-13.29,8.84c-4.32-1.65-10.56-1.19-10.56-1.19s-.7-1,0-3.19,2.94-6,5.33-9.54c2.7-4,5.51-7.63,6.23-7.63h.1c1.48,0,10.27-.75,14.23-.37a4.73,4.73,0,0,1,1.7.37C209.44,283.26,211.91,288.48,211.91,288.48Z" style="fill:#407BFF"></path><path d="M214.62,291.41s-4.15.66-4,3.49a3.65,3.65,0,0,0,2.66,3.4l14,1.57s4.21-2.09,3.35-3.86S214.62,291.41,214.62,291.41Z" style="fill:#263238"></path><path d="M191.35,333.19s18.18,19.71,26.05,22.38S242.14,333,243.84,331s49.58-9.64,56.23-8.64,17.95,2.92,20.61,5.12S317,339.79,317,339.79L327.66,358s-38,38.47-63.55,35.33-104.71,5.81-108.85-7S191.35,333.19,191.35,333.19Z" style="fill:#263238"></path><path d="M327.67,358s-38,38.46-63.56,35.33-104.7,5.81-108.85-7,36.09-53.12,36.09-53.12,2.19,2.38,5.39,5.6c6,6,15.53,15,20.65,16.78C224,357.81,237,340.33,242,333.5c.94-1.3,1.6-2.21,1.87-2.53,1.7-2,49.58-9.64,56.23-8.65s17.95,2.93,20.61,5.12S317,339.79,317,339.79Z" style="fill:#fff;opacity:0.4"></path><path d="M258.11,344.21c-8.48,3.38-24.76,20.56-27,23.93s-2.22,9.05-15.08,6.83-35.9-19.51-35.9-19.51a45,45,0,0,1,16.58-16.67c6,6,15.53,15,20.65,16.78C224,357.81,237,340.33,242,333.5,252.26,337,263.4,342.11,258.11,344.21Z" style="opacity:0.2;isolation:isolate"></path><path d="M372.09,365.1c-5.38,7.83-49.2,39-55.18,41.86-6.65,3.16-151.92,16.55-162.4,9.24-8.7-6.06-49.84-19.12-54.49-34-1-3.06-.39-6.2,2.34-9.37,0,0,30.72-37.05,51.22-55.64,6-5.47,11.16-9.34,14.38-10.21,13.23-3.6,29.16-.42,33,.92l.64.26c2.22,1.11,14.64,21.2,16.41,29.4s-52.75,34.82-51.87,39.6,113.93,9.22,137.42-4.33S329.32,356,329.32,356s32.29,4.57,41.24,6.87a14.76,14.76,0,0,1,1.77.54C372.82,363.62,372.71,364.21,372.09,365.1Z" style="fill:#407BFF"></path><path d="M312.26,337.62s9.09-7.83,8.42-10.17-10.42-5.21-10.42-5.21l-4.87-1.8s9.61.71,13.34,1.8,7.27.64,8.93,4.41-8.93,13.14-8.93,13.14Z" style="fill:#407BFF"></path><path d="M226,347.79l1.58,2.8h13.46s10.12-4.88,11.95-5.54,55.24-7.43,55.24-7.43,10-11.42,8.64-14.07-17.06-7.23-21.94-6.28-21.53,6.94-25.5,6.94-37,9.53-41,13.41S222.71,343.88,226,347.79Z" style="fill:#263238"></path><path d="M370.56,362.87l-33-2.09-41.62,22.43s-8.7,15-11,16.36-67.52,7.32-74.39,6.14-59.85-19.22-54.44-26.7,57.32-40.39,56.88-43.5-11.31-27.36-11.31-27.36c2.22,1.11,14.64,21.2,16.41,29.4s-52.75,34.82-51.87,39.6,113.93,9.22,137.42-4.33S329.32,356,329.32,356,361.61,360.57,370.56,362.87Z" style="opacity:0.2;isolation:isolate"></path><path d="M312.26,337.62s-40.37,8.31-42.79,11-14,32.56-14,32.56,30.64-.24,36.85,0S331.54,360.2,332,359.38s-13.26-19.59-13.26-19.59Z" style="fill:#263238"></path><path d="M312.26,337.62s-40.37,8.31-42.79,11-14,32.56-14,32.56,30.64-.24,36.85,0S331.54,360.2,332,359.38s-13.26-19.59-13.26-19.59Z" style="fill:#fff;opacity:0.2"></path><path d="M197.67,312s-40.9,31.45-45.55,42.65,55.94-21.48,55.94-21.48Z" style="opacity:0.2;isolation:isolate"></path><path d="M192.34,289.41H196L182.9,298.3l2.39-8.49,2-.18,4.37-7.45c1.48,0,10.27-.75,14.23-.37Z" style="fill:#fff;opacity:0.6000000000000001"></path><path d="M194.38,309.62l-45.7,31.44,4.66,2.22L112.77,373.2l18-31.8,3.82-1.61,19-22.61A80.26,80.26,0,0,1,163.87,309l-26.65,34.31c.64-.49,33.06-25,54.43-37.29a53.47,53.47,0,0,1,9.36,1.91A49.16,49.16,0,0,1,194.38,309.62Z" style="fill:#fff;opacity:0.6000000000000001"></path><path d="M191.68,349.49s-31,6.19-47.24,14.4l3.8,3.32s-22.61,14.17-26.82,21.27S134.55,402,134.55,402s-10-15.14,23.66-32.58l-5-4.33S180.13,352.24,191.68,349.49Z" style="fill:#fff;opacity:0.6000000000000001"></path><path d="M372.09,365.1c-5.38,7.83-49.2,39-55.18,41.86-6.65,3.16-151.92,16.55-162.4,9.24-8.7-6.06-49.84-19.12-54.49-34,5.93.79,13.63,1.81,17.19,2.32,6.2.87,30.76,19.6,38.87,24.31S186.14,410,186.14,410s23.27,3.55,25,3.55,103.16-8.87,107.55-10.86,41.63-29.27,44.73-33.25C365,367.47,368.71,366,372.09,365.1Z" style="fill:#263238"></path><path d="M362.35,366.32c.7,0-20.39-3.32-20.39-3.32l-26.88,15.31h14.47l-16.4,19.34L293.73,402l22.88-2.22,29.12-24L332,375.47S343.51,365.88,362.35,366.32Z" style="fill:#fff;opacity:0.6000000000000001"></path><path d="M274,271.41c-4.6-2.32-17.49,17.25-20,19.5s-27.88.25-27.88.25l-1.16,5.28s26.14,5,30.53,2.9,19.17-13.29,20.34-18.09S276.88,272.85,274,271.41Z" style="fill:#ebb376"></path><path d="M278.35,304.7c-5.61-.44-10.2,4.81-10.2,4.81-19.26,2.62-42.28,14.3-43.68,22.23-1.34,7.58,9.5,21.47,21.1,57.32,1,4.24-4.17,7.29-8.42,8.47s-1.74,3.67,3,3.47l11.87-.5c3.1-.13,1.53-2.47.92-7.42-1.92-33.57-9.5-53.76-9.5-53.76,30.87-4.69,41.09-1.15,43.06-15.77C288.54,308.72,283,305.07,278.35,304.7Z" style="fill:#ebb376"></path></g><g id="freepik--splash-1--inject-143"><path d="M144.05,416.36c6.91,2.16,22.45-2.88,28-7.45,11.08-9.18,2.49,3.48,3.43,4.55,4.85,5.5,16.12.23,24.7-15.81s16.74-16.44,14.48-11.13S190.83,405,201,409.28s47.36-31.52,60.74-36.08-2.87,7.79-6.29,7.95-33.12,25.46-25.14,27.76,39.36-8.31,54-26.41,50.4-53.86,66-48.63-25.56,8.72-42.43,31.23,65-28.5,92.34-23.3-32.61,7.31-59.58,26.3,55.75-7.39,74,1S389,369,369.54,382.5s30.68,5,38.46,7.85-36.84,10.3-26.83,14.86,57.77-2,49.18,13.14H119.49S128.26,411.42,144.05,416.36Z" style="fill:#407BFF"></path><path d="M430.35,418.35H119.49s8.77-6.93,24.56-2c6.91,2.16,22.45-2.88,28-7.45,11.08-9.18,2.49,3.48,3.43,4.55,4.85,5.5,16.12.23,24.7-15.81s16.74-16.44,14.48-11.13S190.83,405,201,409.28s47.36-31.52,60.74-36.08-2.87,7.79-6.29,7.95-33.12,25.46-25.14,27.76,39.36-8.31,54-26.41,50.4-53.86,66-48.63-25.56,8.72-42.43,31.23,65-28.5,92.34-23.3-32.61,7.31-59.58,26.3,55.75-7.39,74,1S389,369,369.54,382.5s30.68,5,38.46,7.85-36.84,10.3-26.83,14.86S438.94,403.2,430.35,418.35Z" style="fill:#fff;opacity:0.7000000000000001"></path><path d="M223.18,414.33c1.3.49,2.67,3.16,7.42,4H199.44s15.69-3.31,20.37-8.05S220.54,413.34,223.18,414.33Z" style="fill:#fff;opacity:0.7000000000000001"></path><path d="M343.92,414.25c-4.17-2.63,10.76-6.06,0-6.85s-34.24,11.07-40,6.06,4.48-10.77,1.32-11.45-28.94,14.33-29.77,10.25-.53-5.13-4.77-2c-1.76,1.31-7,4.62-12.54,8.05H237.37c5.06-.68,12.11-2.8,22.1-7.53,30.69-14.5,37.3-30.85,42.17-29.67s-11.74,13.63-9.89,18,38-13.34,44.83-12.81-13.6,7.62-14.05,13.43,30.33,3.45,36.7,4.24-5.51,4.24-4.58,6.73,21.78-.63,26.52,1.2S348.08,416.89,343.92,414.25Z" style="fill:#fff;opacity:0.7000000000000001"></path></g></svg>